<svg width="2000" height="1555" version="1.1" xmlns="http://www.w3.org/2000/svg" desc="Created with imagetracer.js version 1.2.5"><path fill="rgb(150,150,150)" stroke="rgb(150,150,150)" stroke-width="1" opacity="1" d="M 1109.5 286 L 1127.5 286 L 1128.5 287 L 1137.5 287 L 1153.5 290 L 1201.5 304 L 1221.5 312 L 1237.5 321 L 1252.5 321 Q 1255.2 318.2 1261.5 319 Q 1275.3 321.7 1285.5 328 L 1297 338.5 Q 1305.1 348.4 1310 361.5 L 1311 374.5 L 1308 388.5 L 1303 395.5 L 1302 399.5 L 1338 455.5 L 1356 492.5 L 1373 540.5 L 1384 588.5 L 1387 616.5 L 1388 617.5 L 1389 641.5 L 1390 642.5 L 1390 695.5 L 1389 696.5 L 1389 710.5 L 1388 711.5 L 1388 720.5 L 1387 721.5 L 1386 736 Q 1446.2 711 1501.5 680 L 1546.5 652 L 1571 631.5 L 1579 620.5 L 1580 609.5 L 1574.5 603 L 1563.5 596 L 1539.5 589 L 1526.5 588 L 1525.5 587 L 1513.5 587 L 1512.5 586 L 1475.5 586 L 1474.5 587 L 1458.5 587 L 1457.5 588 L 1427.5 590 L 1426.5 591 L 1411.5 592 L 1389 596 Q 1387.7 592.3 1393.5 594 L 1400.5 592 L 1421.5 590 L 1422.5 589 L 1430.5 589 L 1431.5 588 L 1439.5 588 L 1440.5 587 L 1463.5 586 L 1464.5 585 L 1490.5 585 Q 1492.3 582.3 1498.5 584 L 1499.5 585 L 1530.5 586 L 1547.5 589 L 1568.5 597 L 1579 605.5 Q 1583.1 608.4 1582 616.5 Q 1576.9 629.9 1566.5 638 L 1540.5 658 L 1497.5 684 L 1426.5 720 L 1385 738 L 1385 744.5 L 1379 778.5 L 1367 826 L 1421.5 809 L 1470.5 791 L 1597.5 738 L 1669.5 705 Q 1725.5 678.5 1776.5 647 L 1821.5 615 L 1849 588.5 L 1863 566.5 L 1866 556.5 L 1866 542.5 Q 1862.6 529.4 1853.5 522 Q 1843.7 513.8 1830.5 509 L 1815.5 504 L 1791.5 499 L 1767.5 497 L 1766.5 496 L 1755.5 496 L 1754.5 495 L 1735.5 495 L 1734.5 494 L 1679.5 494 L 1678.5 495 L 1654.5 495 L 1653.5 496 L 1609.5 498 L 1608.5 499 L 1597.5 499 L 1596.5 500 L 1586.5 500 L 1585.5 501 L 1575.5 501 L 1574.5 502 L 1565.5 502 L 1564.5 503 L 1529.5 506 L 1528.5 507 L 1497.5 510 L 1496.5 511 L 1482.5 512 L 1481.5 513 L 1454.5 516 L 1447.5 518 L 1434.5 519 L 1372 530 Q 1370.7 526.3 1376.5 528 L 1388.5 525 L 1393.5 525 L 1418.5 520 L 1424.5 520 L 1437.5 517 L 1450.5 516 L 1457.5 514 L 1485.5 511 L 1500.5 508 L 1507.5 508 L 1508.5 507 L 1515.5 507 L 1516.5 506 L 1523.5 506 L 1524.5 505 L 1568.5 501 L 1569.5 500 L 1613.5 497 L 1614.5 496 L 1627.5 496 L 1628.5 495 L 1643.5 495 L 1644.5 494 L 1703.5 493 L 1704.5 492 L 1712.5 492 L 1713.5 493 L 1762.5 494 L 1763.5 495 L 1781.5 496 L 1782.5 497 L 1805.5 500 L 1832.5 508 Q 1849.2 514.3 1860 526.5 L 1867 540.5 L 1868 554.5 Q 1865.7 566.7 1860 575.5 L 1843 598 L 1841 598 Q 1842.1 600.7 1839.5 600 L 1838 603 L 1808.5 627 L 1769.5 653 Q 1718.3 683.8 1662.5 710 L 1573.5 750 L 1454.5 799 L 1366 828 L 1347 884.5 L 1336 910.5 L 1319 943.5 Q 1294.9 984.4 1260.5 1015 Q 1214.1 1056.6 1146.5 1077 L 1118.5 1084 L 1096.5 1088 L 1083.5 1089 L 1082.5 1090 L 1061.5 1091 L 1060.5 1092 L 1040.5 1092 L 1039.5 1093 L 1013.5 1093 L 1012.5 1092 L 991.5 1092 L 990.5 1091 L 967.5 1090 L 966.5 1089 L 958.5 1089 L 957.5 1088 L 950.5 1088 L 949.5 1087 L 918.5 1083 L 876.5 1074 L 840.5 1064 Q 811.2 1055.3 785.5 1043 L 742.5 1009 Q 740.5 1006 734.5 1007 L 728.5 1009 L 723.5 1009 L 717.5 1011 L 706.5 1012 L 700.5 1014 L 671.5 1018 L 635.5 1025 L 629.5 1025 L 592.5 1032 L 586.5 1032 L 573.5 1035 L 567.5 1035 L 554.5 1038 L 548.5 1038 L 541.5 1040 L 535.5 1040 L 528.5 1042 L 522.5 1042 L 515.5 1044 L 502.5 1045 L 495.5 1047 L 489.5 1047 L 488.5 1048 L 482.5 1048 L 453.5 1053 L 446.5 1053 L 445.5 1054 L 407.5 1058 L 406.5 1059 L 385.5 1060 L 384.5 1061 L 314.5 1063 L 313.5 1062 L 279.5 1062 L 278.5 1061 L 250.5 1060 L 249.5 1059 L 240.5 1059 L 239.5 1058 L 217.5 1056 L 191.5 1051 L 165.5 1043 L 151.5 1036 L 136 1022.5 L 131 1011.5 L 131 1001.5 Q 134.3 986.3 143 976.5 L 168.5 949 Q 197.2 923.2 230.5 902 Q 278.8 870.8 331.5 844 Q 432.1 792.6 545 753.5 Q 506.9 687.1 453.5 636 Q 426.1 609.9 389.5 593 L 361.5 584 L 349.5 583 L 348.5 582 L 323.5 582 L 304.5 586 L 285.5 594 L 280.5 598 Q 261.3 605.3 245.5 616 Q 232.7 623.7 223 634.5 L 213.5 645 Q 202.5 654 188.5 660 L 178.5 663 L 168.5 663 L 165 660.5 Q 154.7 651.8 149 638.5 L 146 623.5 L 146 610.5 L 149 596.5 L 156 581.5 L 169 563.5 L 187 544.5 Q 186.5 540.5 189.5 540 L 256 501.5 L 254 501 Q 252.9 498.3 255.5 499 L 281.5 491 L 305.5 488 L 306.5 487 L 332.5 486 L 333.5 485 L 356.5 485 L 357.5 486 L 373.5 486 L 374.5 487 L 391.5 488 L 424.5 494 Q 464.1 503.4 497.5 519 Q 581 559.5 640 624.5 L 655.5 642 L 662 637.5 Q 664.5 632 663 622.5 L 665 615.5 Q 669 604.5 677.5 598 Q 687.3 589.3 707.5 591 L 732.5 596 L 742.5 600 Q 753.4 605.6 761 614.5 Q 768.8 623.7 772 637.5 L 773 649.5 L 774 650.5 L 774 668.5 L 773 669.5 L 773 689.5 L 772 690.5 L 772 706.5 L 771 707.5 L 771 720.5 L 770 721.5 L 770 734.5 L 769 735.5 L 769 750.5 L 768 755.5 L 771 770.5 L 779 790.5 Q 787 805 799.5 815 Q 810.9 824.1 825.5 830 L 888.5 856 L 935.5 870 L 956.5 874 L 968.5 874 L 1069.5 848 Q 1092.6 837.1 1109 819.5 L 1114 810 L 1116 810.5 Q 1111.1 822.1 1101.5 829 L 1081 843.5 L 1084.5 844 L 1170.5 819 L 1243.5 794 L 1288 777 L 1305 733.5 L 1314 701.5 L 1321 662.5 L 1323 640.5 L 1324 639.5 L 1324 631.5 L 1326 621.5 L 1326 595.5 L 1325 594.5 L 1325 579.5 L 1324 578.5 L 1323 556.5 L 1322 555.5 L 1322 547.5 L 1321 546.5 L 1320 530.5 L 1317 515.5 L 1317 508.5 L 1320.5 501 L 1327.5 500 L 1336 506.5 L 1337 511 Q 1333.7 512.3 1335 507.5 L 1330.5 504 L 1331 505.5 L 1346 547.5 L 1357 593.5 L 1359 611.5 L 1360 612.5 L 1360 619.5 L 1361 620.5 L 1362 643.5 L 1363 644.5 L 1363 683.5 L 1362 684.5 L 1362 697.5 L 1361 698.5 L 1359 720.5 L 1352 750.5 L 1353.5 750 Q 1370.3 744.8 1384 736.5 L 1385 725.5 L 1386 724.5 L 1386 715.5 L 1387 714.5 L 1387 702.5 L 1388 701.5 L 1389 656.5 L 1388 655.5 L 1387 623.5 L 1386 622.5 L 1386 613.5 L 1385 612.5 L 1385 605.5 L 1384 604.5 L 1382 586.5 L 1372 542.5 L 1366 523.5 L 1356 497.5 L 1340 465.5 L 1320 430.5 L 1308 414.5 L 1308 411.5 L 1301 401.5 L 1301 396.5 Q 1306.2 391.7 1308 383.5 L 1309 363.5 Q 1302.2 344.3 1288.5 332 Q 1276.6 321.9 1255.5 321 L 1251.5 323 L 1238.5 323 L 1215.5 311 L 1171.5 296 L 1140.5 289 L 1132.5 289 L 1131.5 288 L 1104.5 288 L 1076.5 294 Q 1055.8 303.3 1041 318.5 Q 1033 326.5 1029 338.5 Q 1026.3 346.8 1028 359.5 Q 1036.5 394 1060.5 413 L 1079.5 427 L 1110 457.5 Q 1143.6 493.4 1166 540.5 L 1172 556.5 L 1176 572.5 Q 1174.8 577.2 1177 578.5 L 1177 604.5 L 1173 623.5 L 1165 644.5 Q 1156.5 661 1142.5 672 Q 1127.9 684.4 1106.5 690 L 1082.5 695 L 1053.5 698 L 1016.5 707 L 988.5 717 Q 978.2 721.2 971 728.5 Q 963.5 736.5 961 749.5 L 959 760.5 L 959 780.5 Q 963.4 799.6 976.5 810 L 990.5 819 L 1013.5 819 L 1014.5 818 L 1026.5 818 L 1027.5 817 L 1064.5 814 L 1065.5 813 L 1104.5 809 L 1115 807 Q 1116.4 811 1109.5 809 L 1108.5 810 L 1101.5 810 L 1100.5 811 L 1070.5 814 L 1069.5 815 L 1061.5 815 L 1060.5 816 L 1052.5 816 L 1051.5 817 L 1043.5 817 L 1042.5 818 L 1022.5 819 L 1021.5 820 L 1007.5 820 L 1006.5 821 L 992.5 821 Q 977.9 815.6 969 804.5 Q 962.5 797 959 786.5 L 957 776.5 L 957 765.5 L 958 764.5 L 959 750.5 L 962 740.5 Q 965.5 731 972.5 725 L 989.5 715 L 1028.5 702 L 1062.5 695 L 1091.5 692 L 1111.5 687 Q 1138.1 678.1 1154 658.5 Q 1175.9 632.4 1176 584.5 L 1175 583.5 L 1174 570.5 L 1168 549.5 L 1149 511.5 Q 1119.6 464.9 1079.5 429 Q 1061.7 417.8 1048 402.5 Q 1037.7 390.8 1031 375.5 Q 1025.6 363.4 1026 345.5 L 1030 331.5 Q 1036 320 1045.5 312 Q 1059.2 299.7 1077.5 292 L 1093.5 288 L 1108.5 287 L 1109.5 286 Z M 325 487 L 324 488 L 313 488 L 312 489 L 304 489 L 303 490 L 285 492 L 268 496 L 261 499 Q 258 498 259 502 L 191 541 L 159 580 Q 151 591 148 607 L 148 628 L 151 640 L 154 646 L 167 661 L 170 662 L 177 662 L 192 657 L 213 644 L 221 635 Q 232 622 248 613 L 283 594 L 306 584 L 329 580 L 344 580 L 345 581 L 354 581 L 364 583 L 396 594 Q 428 610 454 634 Q 489 667 517 708 L 547 754 Q 567 788 585 825 L 603 855 Q 632 900 670 938 L 708 932 L 807 912 L 887 893 L 891 893 L 929 883 L 933 883 L 959 876 L 938 872 L 918 867 L 882 855 L 820 829 L 800 817 Q 774 797 767 760 L 767 742 L 768 741 L 768 728 L 769 727 L 769 714 L 770 713 L 770 699 L 771 698 L 771 680 L 772 679 L 772 646 Q 770 644 771 640 Q 768 624 759 615 Q 751 605 739 600 L 723 595 L 712 594 L 711 593 Q 688 590 678 600 Q 671 606 667 615 Q 663 621 665 634 L 663 639 L 659 642 L 657 646 L 637 624 Q 602 587 561 557 Q 529 535 492 518 Q 454 501 408 492 L 389 490 L 388 489 L 380 489 L 379 488 L 367 488 L 366 487 L 325 487 Z M 1326 501 L 1323 502 L 1320 505 L 1318 512 L 1321 527 L 1322 542 L 1323 543 L 1325 572 L 1326 573 L 1326 585 L 1327 586 L 1327 628 L 1326 629 L 1325 645 L 1324 646 L 1319 685 L 1310 724 L 1290 775 L 1291 776 L 1350 752 L 1352 747 L 1358 717 L 1359 703 L 1360 702 L 1360 692 L 1361 691 L 1361 668 L 1362 667 L 1361 665 L 1361 639 L 1360 638 L 1359 618 L 1358 617 L 1358 610 L 1352 577 L 1342 540 L 1328 503 L 1326 501 Z M 1384 739 L 1353 752 L 1336 797 Q 1324 822 1309 844 L 1310 845 L 1364 828 L 1367 821 L 1375 790 L 1384 741 L 1384 739 Z M 1349 754 L 1291 777 L 1287 782 L 1281 798 L 1264 832 L 1241 866 L 1306 846 Q 1334 808 1349 757 L 1349 754 Z M 545 755 Q 423 798 316 854 L 240 898 Q 202 921 170 950 L 144 978 L 134 996 L 132 1006 L 133 1014 L 137 1022 L 153 1035 L 173 1044 L 183 1047 L 209 1053 L 236 1056 L 237 1057 L 257 1058 L 258 1059 L 271 1059 L 272 1060 L 294 1060 L 295 1061 L 353 1061 L 354 1060 L 376 1060 L 377 1059 L 391 1059 L 392 1058 L 401 1058 L 402 1057 L 411 1057 L 428 1054 L 435 1054 L 443 1052 L 450 1052 L 479 1047 L 485 1047 L 486 1046 L 492 1046 L 499 1044 L 505 1044 L 506 1043 L 512 1043 L 519 1041 L 532 1040 L 539 1038 L 545 1038 L 602 1028 L 608 1028 L 621 1025 L 686 1015 L 692 1013 L 709 1011 L 715 1009 L 726 1008 L 732 1006 Q 738 1008 737 1004 Q 700 975 669 940 L 640 944 L 639 945 L 625 946 L 624 947 L 598 949 L 597 950 L 561 951 L 560 952 L 520 952 L 519 953 L 477 952 L 476 951 L 458 950 L 434 944 L 423 938 L 414 928 L 415 918 L 420 910 L 445 886 L 490 855 L 539 828 Q 556 819 577 814 L 577 816 L 574 816 L 547 826 L 508 846 Q 470 867 439 893 L 422 910 L 415 923 L 415 926 L 418 932 L 427 939 L 445 946 L 462 949 L 487 950 L 488 951 L 542 951 L 543 950 L 590 949 L 591 948 L 601 948 L 602 947 L 611 947 L 628 944 L 635 944 L 636 943 L 642 943 L 649 941 L 667 939 L 625 889 L 600 853 L 585 828 Q 567 791 547 757 L 545 755 Z M 1286 779 L 1251 793 L 1179 818 L 1113 838 L 1073 848 Q 1049 862 1020 871 L 989 877 L 970 877 L 969 876 L 964 876 L 902 892 L 898 892 L 805 914 L 677 939 Q 670 938 671 941 Q 703 975 740 1005 L 803 993 L 883 972 L 1054 923 L 1238 867 Q 1253 850 1264 829 L 1287 780 L 1286 779 Z M 1364 829 L 1308 847 Q 1285 880 1259 910 Q 1221 952 1172 983 Q 1150 997 1126 1007 L 1095 1018 L 1078 1022 L 1071 1021 L 1066 1015 L 1069 1006 L 1074 1001 L 1103 986 L 1130 966 Q 1179 926 1224 881 L 1229 877 L 1230 875 L 1234 870 L 1056 924 L 885 973 L 797 996 L 741 1007 L 784 1040 L 813 1053 L 843 1063 L 888 1075 L 928 1083 L 955 1086 L 956 1087 L 963 1087 L 964 1088 L 985 1089 L 986 1090 L 1001 1090 L 1002 1091 L 1051 1091 L 1052 1090 L 1067 1090 L 1068 1089 L 1086 1088 L 1087 1087 L 1100 1086 L 1121 1082 L 1155 1073 L 1184 1062 L 1214 1047 Q 1239 1032 1261 1013 Q 1295 982 1319 941 L 1338 903 L 1354 862 L 1364 831 L 1364 829 Z M 1304 848 L 1238 869 L 1224 884 Q 1221 883 1222 886 L 1221 886 L 1170 934 L 1121 975 Q 1100 992 1074 1003 Q 1069 1006 1068 1013 Q 1067 1019 1072 1020 L 1079 1020 L 1088 1017 L 1090 1017 L 1103 1014 L 1127 1005 L 1166 985 Q 1200 964 1230 937 Q 1272 898 1304 850 L 1304 848 Z M 1058 852 L 1023 862 L 972 874 L 972 875 L 993 875 L 1018 870 L 1044 861 L 1061 853 L 1058 852 Z "></path><path fill="rgb(255,255,255)" stroke="rgb(255,255,255)" stroke-width="1" opacity="1" d="M 0 0 L 2000 0 L 2000 1555 L 0 1555 L 0 0 Z M 1110 286 L 1109 287 L 1094 288 L 1078 292 Q 1059 300 1046 312 Q 1036 320 1030 332 L 1026 346 Q 1026 363 1031 376 Q 1038 391 1048 403 Q 1062 418 1080 429 Q 1120 465 1149 512 L 1168 550 L 1174 571 L 1175 584 L 1176 585 Q 1176 632 1154 659 Q 1138 678 1112 687 L 1092 692 L 1063 695 L 1029 702 L 990 715 L 973 725 Q 966 731 962 741 L 959 751 L 958 765 L 957 766 L 957 777 L 959 787 Q 963 797 969 805 Q 978 816 993 821 L 1007 821 L 1008 820 L 1022 820 L 1023 819 L 1043 818 L 1044 817 L 1052 817 L 1053 816 L 1061 816 L 1062 815 L 1070 815 L 1071 814 L 1101 811 L 1102 810 L 1109 810 L 1110 809 Q 1116 811 1115 807 L 1105 809 L 1066 813 L 1065 814 L 1028 817 L 1027 818 L 1015 818 L 1014 819 L 991 819 L 977 810 Q 963 800 959 781 L 959 761 L 961 750 Q 964 737 971 729 Q 978 721 989 717 L 1017 707 L 1054 698 L 1083 695 L 1107 690 Q 1128 684 1143 672 Q 1156 661 1165 645 L 1173 624 L 1177 605 L 1177 579 Q 1175 577 1176 573 L 1172 557 L 1166 541 Q 1144 493 1110 458 L 1080 427 L 1061 413 Q 1037 394 1028 360 Q 1026 347 1029 339 Q 1033 327 1041 319 Q 1056 303 1077 294 L 1105 288 L 1132 288 L 1133 289 L 1141 289 L 1172 296 L 1216 311 L 1239 323 L 1252 323 L 1256 321 Q 1277 322 1289 332 Q 1302 344 1309 364 L 1308 384 Q 1306 392 1301 397 L 1301 402 L 1308 412 L 1308 415 L 1320 431 L 1340 466 L 1356 498 L 1366 524 L 1372 543 L 1382 587 L 1384 605 L 1385 606 L 1385 613 L 1386 614 L 1386 623 L 1387 624 L 1388 656 L 1389 657 L 1388 702 L 1387 703 L 1387 715 L 1386 716 L 1386 725 L 1385 726 L 1384 737 Q 1370 745 1354 750 L 1352 751 L 1359 721 L 1361 699 L 1362 698 L 1362 685 L 1363 684 L 1363 645 L 1362 644 L 1361 621 L 1360 620 L 1360 613 L 1359 612 L 1357 594 L 1346 548 L 1331 506 L 1331 504 L 1335 508 Q 1334 512 1337 511 L 1336 507 L 1328 500 L 1321 501 L 1317 509 L 1317 516 L 1320 531 L 1321 547 L 1322 548 L 1322 556 L 1323 557 L 1324 579 L 1325 580 L 1325 595 L 1326 596 L 1326 622 L 1324 632 L 1324 640 L 1323 641 L 1321 663 L 1314 702 L 1305 734 L 1288 777 L 1244 794 L 1171 819 L 1081 845 L 1079 845 L 1102 829 Q 1111 822 1116 811 L 1114 810 L 1109 820 Q 1093 837 1070 848 L 969 874 L 957 874 L 936 870 L 889 856 L 826 830 Q 811 824 800 815 Q 787 805 779 791 L 771 771 L 768 756 L 769 751 L 769 736 L 770 735 L 770 722 L 771 721 L 771 708 L 772 707 L 772 691 L 773 690 L 773 670 L 774 669 L 774 651 L 773 650 L 772 638 Q 769 624 761 615 Q 753 606 743 600 L 733 596 L 708 591 Q 687 589 678 598 Q 669 605 665 616 L 663 623 Q 665 632 662 638 L 656 642 L 640 625 Q 581 560 498 519 Q 464 503 425 494 L 392 488 L 375 487 L 374 486 L 358 486 L 357 485 L 334 485 L 333 486 L 307 487 L 306 488 L 282 491 L 256 499 Q 253 498 254 501 L 256 502 L 190 540 Q 187 541 187 545 L 169 564 L 156 582 L 149 597 L 146 611 L 146 624 L 149 639 Q 155 652 165 661 L 169 663 L 179 663 L 189 660 Q 203 654 214 645 L 223 635 Q 233 624 246 616 Q 261 605 281 598 L 286 594 L 305 586 L 324 582 L 349 582 L 350 583 L 362 584 L 390 593 Q 426 610 454 636 Q 507 687 545 754 Q 432 793 332 844 Q 279 871 231 902 Q 197 923 169 949 L 143 977 Q 134 986 131 1002 L 131 1012 L 136 1023 L 152 1036 L 166 1043 L 192 1051 L 218 1056 L 240 1058 L 241 1059 L 250 1059 L 251 1060 L 279 1061 L 280 1062 L 314 1062 L 315 1063 L 385 1061 L 386 1060 L 407 1059 L 408 1058 L 446 1054 L 447 1053 L 454 1053 L 483 1048 L 489 1048 L 490 1047 L 496 1047 L 503 1045 L 516 1044 L 523 1042 L 529 1042 L 536 1040 L 542 1040 L 549 1038 L 555 1038 L 568 1035 L 574 1035 L 587 1032 L 593 1032 L 630 1025 L 636 1025 L 672 1018 L 701 1014 L 707 1012 L 718 1011 L 724 1009 L 729 1009 L 735 1007 Q 741 1006 743 1009 L 786 1043 Q 811 1055 841 1064 L 877 1074 L 919 1083 L 950 1087 L 951 1088 L 958 1088 L 959 1089 L 967 1089 L 968 1090 L 991 1091 L 992 1092 L 1013 1092 L 1014 1093 L 1040 1093 L 1041 1092 L 1061 1092 L 1062 1091 L 1083 1090 L 1084 1089 L 1097 1088 L 1119 1084 L 1147 1077 Q 1214 1057 1261 1015 Q 1295 984 1319 944 L 1336 911 L 1347 885 L 1366 828 L 1455 799 L 1574 750 L 1663 710 Q 1718 684 1770 653 L 1809 627 L 1838 603 L 1840 600 Q 1842 601 1841 598 L 1843 598 L 1860 576 Q 1866 567 1868 555 L 1867 541 L 1860 527 Q 1849 514 1833 508 L 1806 500 L 1783 497 L 1782 496 L 1764 495 L 1763 494 L 1714 493 L 1713 492 L 1705 492 L 1704 493 L 1645 494 L 1644 495 L 1629 495 L 1628 496 L 1615 496 L 1614 497 L 1570 500 L 1569 501 L 1525 505 L 1524 506 L 1517 506 L 1516 507 L 1509 507 L 1508 508 L 1501 508 L 1486 511 L 1458 514 L 1451 516 L 1438 517 L 1425 520 L 1419 520 L 1394 525 L 1389 525 L 1377 528 Q 1371 526 1372 530 L 1435 519 L 1448 518 L 1455 516 L 1482 513 L 1483 512 L 1497 511 L 1498 510 L 1529 507 L 1530 506 L 1565 503 L 1566 502 L 1575 502 L 1576 501 L 1586 501 L 1587 500 L 1597 500 L 1598 499 L 1609 499 L 1610 498 L 1654 496 L 1655 495 L 1679 495 L 1680 494 L 1735 494 L 1736 495 L 1755 495 L 1756 496 L 1767 496 L 1768 497 L 1792 499 L 1816 504 L 1831 509 Q 1844 514 1854 522 Q 1863 529 1866 543 L 1866 557 L 1863 567 L 1849 589 L 1822 615 L 1777 647 Q 1725 678 1670 705 L 1598 738 L 1471 791 L 1422 809 L 1367 826 L 1379 779 L 1385 745 L 1385 738 L 1427 720 L 1498 684 L 1541 658 L 1567 638 Q 1577 630 1582 617 Q 1583 608 1579 606 L 1569 597 L 1548 589 L 1531 586 L 1500 585 L 1499 584 Q 1492 582 1491 585 L 1465 585 L 1464 586 L 1441 587 L 1440 588 L 1432 588 L 1431 589 L 1423 589 L 1422 590 L 1401 592 L 1394 594 Q 1388 592 1389 596 L 1412 592 L 1427 591 L 1428 590 L 1458 588 L 1459 587 L 1475 587 L 1476 586 L 1513 586 L 1514 587 L 1526 587 L 1527 588 L 1540 589 L 1564 596 L 1575 603 L 1580 610 L 1579 621 L 1571 632 L 1547 652 L 1502 680 Q 1446 711 1386 736 L 1387 722 L 1388 721 L 1388 712 L 1389 711 L 1389 697 L 1390 696 L 1390 643 L 1389 642 L 1388 618 L 1387 617 L 1384 589 L 1373 541 L 1356 493 L 1338 456 L 1302 400 L 1303 396 L 1308 389 L 1311 375 L 1310 362 Q 1305 348 1297 339 L 1286 328 Q 1275 322 1262 319 Q 1255 318 1253 321 L 1238 321 L 1222 312 L 1202 304 L 1154 290 L 1138 287 L 1129 287 L 1128 286 L 1110 286 Z "></path><path fill="rgb(255,255,255)" stroke="rgb(255,255,255)" stroke-width="1" opacity="1" d="M 324.5 487 L 365.5 487 L 366.5 488 L 378.5 488 L 379.5 489 L 387.5 489 L 388.5 490 L 407.5 492 Q 453.6 500.9 491.5 518 Q 528.8 534.7 560.5 557 Q 602.5 586.5 637 623.5 L 656.5 646 L 658.5 642 L 663 638.5 L 665 633.5 Q 663.4 621.4 667 614.5 Q 670.6 605.6 677.5 600 Q 687.6 590.1 710.5 593 L 711.5 594 L 722.5 595 L 738.5 600 Q 750.8 605.2 759 614.5 Q 767.7 624.3 771 639.5 Q 769.7 644.3 772 645.5 L 772 678.5 L 771 679.5 L 771 697.5 L 770 698.5 L 770 712.5 L 769 713.5 L 769 726.5 L 768 727.5 L 768 740.5 L 767 741.5 L 767 759.5 Q 774 797.5 799.5 817 L 819.5 829 L 881.5 855 L 917.5 867 L 937.5 872 L 959 875.5 L 932.5 883 L 928.5 883 L 890.5 893 L 886.5 893 L 806.5 912 L 707.5 932 L 669.5 938 Q 632.4 900.1 603 854.5 L 585 824.5 Q 567.5 787.5 547 753.5 L 517 707.5 Q 488.9 667.1 453.5 634 Q 428.3 610.2 395.5 594 L 363.5 583 L 353.5 581 L 344.5 581 L 343.5 580 L 328.5 580 L 305.5 584 L 282.5 594 L 247.5 613 Q 232.2 621.7 221 634.5 L 212.5 644 L 191.5 657 L 176.5 662 L 169.5 662 L 167 661 L 154 645.5 L 151 639.5 L 148 627.5 L 148 606.5 Q 151.3 590.8 159 579.5 L 190.5 541 L 259 502 Q 257.5 498.3 260.5 499 L 267.5 496 L 284.5 492 L 302.5 490 L 303.5 489 L 311.5 489 L 312.5 488 L 323.5 488 L 324.5 487 Z "></path><path fill="rgb(255,255,255)" stroke="rgb(255,255,255)" stroke-width="1" opacity="1" d="M 1325.5 501 L 1328 502.5 L 1342 539.5 L 1352 576.5 L 1358 609.5 L 1358 616.5 L 1359 617.5 L 1360 637.5 L 1361 638.5 L 1361 664.5 L 1362 666.5 L 1361 667.5 L 1361 690.5 L 1360 691.5 L 1360 701.5 L 1359 702.5 L 1358 716.5 L 1352 746.5 L 1350 752 L 1290.5 776 L 1290 774.5 L 1310 723.5 L 1319 684.5 L 1324 645.5 L 1325 644.5 L 1326 628.5 L 1327 627.5 L 1327 585.5 L 1326 584.5 L 1326 572.5 L 1325 571.5 L 1323 542.5 L 1322 541.5 L 1321 526.5 L 1318 511.5 L 1320 504.5 L 1322.5 502 L 1325.5 501 Z "></path><path fill="rgb(255,255,255)" stroke="rgb(255,255,255)" stroke-width="1" opacity="1" d="M 1383.5 739 L 1384 740.5 L 1375 789.5 L 1367 820.5 L 1363.5 828 L 1309.5 845 L 1309 843.5 Q 1324.4 821.9 1336 796.5 L 1352.5 752 L 1383.5 739 Z "></path><path fill="rgb(255,255,255)" stroke="rgb(255,255,255)" stroke-width="1" opacity="1" d="M 1348.5 754 L 1349 756.5 Q 1333.9 807.9 1305.5 846 L 1241 866 L 1264 831.5 L 1281 797.5 L 1287 781.5 L 1290.5 777 L 1348.5 754 Z "></path><path fill="rgb(255,255,255)" stroke="rgb(255,255,255)" stroke-width="1" opacity="1" d="M 544.5 755 L 547 756.5 Q 567.5 790.5 585 827.5 L 600 852.5 L 625 888.5 L 667 939 L 648.5 941 L 641.5 943 L 635.5 943 L 634.5 944 L 627.5 944 L 610.5 947 L 601.5 947 L 600.5 948 L 590.5 948 L 589.5 949 L 542.5 950 L 541.5 951 L 487.5 951 L 486.5 950 L 461.5 949 L 444.5 946 L 426.5 939 L 418 931.5 L 415 925.5 L 415 922.5 L 422 909.5 L 438.5 893 Q 470.2 866.7 507.5 846 L 546.5 826 L 573.5 816 L 577 816 L 576.5 814 Q 555.6 819.1 538.5 828 L 489.5 855 L 444.5 886 L 420 909.5 L 415 917.5 L 414 927.5 L 422.5 938 L 433.5 944 L 457.5 950 L 475.5 951 L 476.5 952 L 518.5 953 L 519.5 952 L 559.5 952 L 560.5 951 L 596.5 950 L 597.5 949 L 623.5 947 L 624.5 946 L 638.5 945 L 639.5 944 L 668.5 940 Q 700.2 975.1 737 1004 Q 738.4 1008 731.5 1006 L 725.5 1008 L 714.5 1009 L 708.5 1011 L 691.5 1013 L 685.5 1015 L 620.5 1025 L 607.5 1028 L 601.5 1028 L 544.5 1038 L 538.5 1038 L 531.5 1040 L 518.5 1041 L 511.5 1043 L 505.5 1043 L 504.5 1044 L 498.5 1044 L 491.5 1046 L 485.5 1046 L 484.5 1047 L 478.5 1047 L 449.5 1052 L 442.5 1052 L 434.5 1054 L 427.5 1054 L 410.5 1057 L 401.5 1057 L 400.5 1058 L 391.5 1058 L 390.5 1059 L 376.5 1059 L 375.5 1060 L 353.5 1060 L 352.5 1061 L 294.5 1061 L 293.5 1060 L 271.5 1060 L 270.5 1059 L 257.5 1059 L 256.5 1058 L 236.5 1057 L 235.5 1056 L 208.5 1053 L 182.5 1047 L 172.5 1044 L 152.5 1035 L 137 1021.5 L 133 1013.5 L 132 1005.5 L 134 995.5 L 144 977.5 L 169.5 950 Q 201.9 921.4 239.5 898 L 315.5 854 Q 423 797.5 544.5 755 Z "></path><path fill="rgb(255,255,255)" stroke="rgb(255,255,255)" stroke-width="1" opacity="1" d="M 1285.5 779 L 1287 779.5 L 1264 828.5 Q 1252.9 849.9 1237.5 867 L 1053.5 923 L 882.5 972 L 802.5 993 L 739.5 1005 Q 703 975 671 940.5 Q 670.4 937.8 676.5 939 L 804.5 914 L 897.5 892 L 901.5 892 L 963.5 876 L 968.5 876 L 969.5 877 L 988.5 877 L 1019.5 871 Q 1048.8 862.3 1072.5 848 L 1112.5 838 L 1178.5 818 L 1250.5 793 L 1285.5 779 Z "></path><path fill="rgb(255,255,255)" stroke="rgb(255,255,255)" stroke-width="1" opacity="1" d="M 1363.5 829 L 1364 830.5 L 1354 861.5 L 1338 902.5 L 1319 940.5 Q 1295 982 1260.5 1013 Q 1239.1 1032.1 1213.5 1047 L 1183.5 1062 L 1154.5 1073 L 1120.5 1082 L 1099.5 1086 L 1086.5 1087 L 1085.5 1088 L 1067.5 1089 L 1066.5 1090 L 1051.5 1090 L 1050.5 1091 L 1001.5 1091 L 1000.5 1090 L 985.5 1090 L 984.5 1089 L 963.5 1088 L 962.5 1087 L 955.5 1087 L 954.5 1086 L 927.5 1083 L 887.5 1075 L 842.5 1063 L 812.5 1053 L 783.5 1040 L 741 1006.5 L 796.5 996 L 884.5 973 L 1055.5 924 L 1233.5 870 L 1230 874.5 L 1228.5 877 L 1223.5 881 Q 1178.9 925.9 1129.5 966 L 1102.5 986 L 1073.5 1001 L 1069 1005.5 L 1066 1014.5 L 1070.5 1021 L 1077.5 1022 L 1094.5 1018 L 1125.5 1007 Q 1150.1 996.6 1171.5 983 Q 1220.9 951.9 1259 909.5 Q 1285.4 880.4 1307.5 847 L 1363.5 829 Z "></path><path fill="rgb(255,255,255)" stroke="rgb(255,255,255)" stroke-width="1" opacity="1" d="M 1303.5 848 L 1304 849.5 Q 1271.6 898.1 1229.5 937 Q 1200.4 963.9 1165.5 985 L 1126.5 1005 L 1102.5 1014 L 1089.5 1017 L 1087.5 1017 L 1078.5 1020 L 1071.5 1020 Q 1067.3 1018.7 1068 1012.5 Q 1068.9 1005.9 1073.5 1003 Q 1099.6 991.6 1120.5 975 L 1169.5 934 L 1220.5 886 L 1222 886 Q 1220.9 883.3 1223.5 884 L 1237.5 869 L 1303.5 848 Z "></path><path fill="rgb(255,255,255)" stroke="rgb(255,255,255)" stroke-width="1" opacity="1" d="M 1061.5 851 L 1063 851.5 L 1043.5 861 L 1017.5 870 L 992.5 875 L 971.5 875 L 971.5 874 L 1022.5 862 L 1061.5 851 Z "></path></svg>