<?xml version="1.0" ?>
<svg xmlns="http://www.w3.org/2000/svg" xmlns:ev="http://www.w3.org/2001/xml-events" xmlns:xlink="http://www.w3.org/1999/xlink" baseProfile="full" desc="Created with imagetracer.js version 1.2.5" height="1555" version="1.1" width="2000">
	<defs/>
	<path d="M 1109.5,286.0 L 1127.5,286.0 L 1128.5,287.0 L 1137.5,287.0 L 1153.5,290.0 L 1201.5,304.0 L 1221.5,312.0 L 1237.5,321.0 L 1252.5,321.0 Q 1255.2,318.2 1261.5,319.0 Q 1275.3,321.7 1285.5,328.0 L 1297.0,338.5 Q 1305.1,348.4 1310.0,361.5 L 1311.0,374.5 L 1308.0,388.5 L 1303.0,395.5 L 1302.0,399.5 L 1338.0,455.5 L 1356.0,492.5 L 1373.0,540.5 L 1384.0,588.5 L 1387.0,616.5 L 1388.0,617.5 L 1389.0,641.5 L 1390.0,642.5 L 1390.0,695.5 L 1389.0,696.5 L 1389.0,710.5 L 1388.0,711.5 L 1388.0,720.5 L 1387.0,721.5 L 1386.0,736.0 Q 1446.2,711.0 1501.5,680.0 L 1546.5,652.0 L 1571.0,631.5 L 1579.0,620.5 L 1580.0,609.5 L 1574.5,603.0 L 1563.5,596.0 L 1539.5,589.0 L 1526.5,588.0 L 1525.5,587.0 L 1513.5,587.0 L 1512.5,586.0 L 1475.5,586.0 L 1474.5,587.0 L 1458.5,587.0 L 1457.5,588.0 L 1427.5,590.0 L 1426.5,591.0 L 1411.5,592.0 L 1389.0,596.0 Q 1387.7,592.3 1393.5,594.0 L 1400.5,592.0 L 1421.5,590.0 L 1422.5,589.0 L 1430.5,589.0 L 1431.5,588.0 L 1439.5,588.0 L 1440.5,587.0 L 1463.5,586.0 L 1464.5,585.0 L 1490.5,585.0 Q 1492.3,582.3 1498.5,584.0 L 1499.5,585.0 L 1530.5,586.0 L 1547.5,589.0 L 1568.5,597.0 L 1579.0,605.5 Q 1583.1,608.4 1582.0,616.5 Q 1576.9,629.9 1566.5,638.0 L 1540.5,658.0 L 1497.5,684.0 L 1426.5,720.0 L 1385.0,738.0 L 1385.0,744.5 L 1379.0,778.5 L 1367.0,826.0 L 1421.5,809.0 L 1470.5,791.0 L 1597.5,738.0 L 1669.5,705.0 Q 1725.5,678.5 1776.5,647.0 L 1821.5,615.0 L 1849.0,588.5 L 1863.0,566.5 L 1866.0,556.5 L 1866.0,542.5 Q 1862.6,529.4 1853.5,522.0 Q 1843.7,513.8 1830.5,509.0 L 1815.5,504.0 L 1791.5,499.0 L 1767.5,497.0 L 1766.5,496.0 L 1755.5,496.0 L 1754.5,495.0 L 1735.5,495.0 L 1734.5,494.0 L 1679.5,494.0 L 1678.5,495.0 L 1654.5,495.0 L 1653.5,496.0 L 1609.5,498.0 L 1608.5,499.0 L 1597.5,499.0 L 1596.5,500.0 L 1586.5,500.0 L 1585.5,501.0 L 1575.5,501.0 L 1574.5,502.0 L 1565.5,502.0 L 1564.5,503.0 L 1529.5,506.0 L 1528.5,507.0 L 1497.5,510.0 L 1496.5,511.0 L 1482.5,512.0 L 1481.5,513.0 L 1454.5,516.0 L 1447.5,518.0 L 1434.5,519.0 L 1372.0,530.0 Q 1370.7,526.3 1376.5,528.0 L 1388.5,525.0 L 1393.5,525.0 L 1418.5,520.0 L 1424.5,520.0 L 1437.5,517.0 L 1450.5,516.0 L 1457.5,514.0 L 1485.5,511.0 L 1500.5,508.0 L 1507.5,508.0 L 1508.5,507.0 L 1515.5,507.0 L 1516.5,506.0 L 1523.5,506.0 L 1524.5,505.0 L 1568.5,501.0 L 1569.5,500.0 L 1613.5,497.0 L 1614.5,496.0 L 1627.5,496.0 L 1628.5,495.0 L 1643.5,495.0 L 1644.5,494.0 L 1703.5,493.0 L 1704.5,492.0 L 1712.5,492.0 L 1713.5,493.0 L 1762.5,494.0 L 1763.5,495.0 L 1781.5,496.0 L 1782.5,497.0 L 1805.5,500.0 L 1832.5,508.0 Q 1849.2,514.3 1860.0,526.5 L 1867.0,540.5 L 1868.0,554.5 Q 1865.7,566.7 1860.0,575.5 L 1843.0,598.0 L 1841.0,598.0 Q 1842.1,600.7 1839.5,600.0 L 1838.0,603.0 L 1808.5,627.0 L 1769.5,653.0 Q 1718.3,683.8 1662.5,710.0 L 1573.5,750.0 L 1454.5,799.0 L 1366.0,828.0 L 1347.0,884.5 L 1336.0,910.5 L 1319.0,943.5 Q 1294.9,984.4 1260.5,1015.0 Q 1214.1,1056.6 1146.5,1077.0 L 1118.5,1084.0 L 1096.5,1088.0 L 1083.5,1089.0 L 1082.5,1090.0 L 1061.5,1091.0 L 1060.5,1092.0 L 1040.5,1092.0 L 1039.5,1093.0 L 1013.5,1093.0 L 1012.5,1092.0 L 991.5,1092.0 L 990.5,1091.0 L 967.5,1090.0 L 966.5,1089.0 L 958.5,1089.0 L 957.5,1088.0 L 950.5,1088.0 L 949.5,1087.0 L 918.5,1083.0 L 876.5,1074.0 L 840.5,1064.0 Q 811.2,1055.3 785.5,1043.0 L 742.5,1009.0 Q 740.5,1006.0 734.5,1007.0 L 728.5,1009.0 L 723.5,1009.0 L 717.5,1011.0 L 706.5,1012.0 L 700.5,1014.0 L 671.5,1018.0 L 635.5,1025.0 L 629.5,1025.0 L 592.5,1032.0 L 586.5,1032.0 L 573.5,1035.0 L 567.5,1035.0 L 554.5,1038.0 L 548.5,1038.0 L 541.5,1040.0 L 535.5,1040.0 L 528.5,1042.0 L 522.5,1042.0 L 515.5,1044.0 L 502.5,1045.0 L 495.5,1047.0 L 489.5,1047.0 L 488.5,1048.0 L 482.5,1048.0 L 453.5,1053.0 L 446.5,1053.0 L 445.5,1054.0 L 407.5,1058.0 L 406.5,1059.0 L 385.5,1060.0 L 384.5,1061.0 L 314.5,1063.0 L 313.5,1062.0 L 279.5,1062.0 L 278.5,1061.0 L 250.5,1060.0 L 249.5,1059.0 L 240.5,1059.0 L 239.5,1058.0 L 217.5,1056.0 L 191.5,1051.0 L 165.5,1043.0 L 151.5,1036.0 L 136.0,1022.5 L 131.0,1011.5 L 131.0,1001.5 Q 134.3,986.3 143.0,976.5 L 168.5,949.0 Q 197.2,923.2 230.5,902.0 Q 278.8,870.8 331.5,844.0 Q 432.1,792.6 545.0,753.5 Q 506.9,687.1 453.5,636.0 Q 426.1,609.9 389.5,593.0 L 361.5,584.0 L 349.5,583.0 L 348.5,582.0 L 323.5,582.0 L 304.5,586.0 L 285.5,594.0 L 280.5,598.0 Q 261.3,605.3 245.5,616.0 Q 232.7,623.7 223.0,634.5 L 213.5,645.0 Q 202.5,654.0 188.5,660.0 L 178.5,663.0 L 168.5,663.0 L 165.0,660.5 Q 154.7,651.8 149.0,638.5 L 146.0,623.5 L 146.0,610.5 L 149.0,596.5 L 156.0,581.5 L 169.0,563.5 L 187.0,544.5 Q 186.5,540.5 189.5,540.0 L 256.0,501.5 L 254.0,501.0 Q 252.9,498.3 255.5,499.0 L 281.5,491.0 L 305.5,488.0 L 306.5,487.0 L 332.5,486.0 L 333.5,485.0 L 356.5,485.0 L 357.5,486.0 L 373.5,486.0 L 374.5,487.0 L 391.5,488.0 L 424.5,494.0 Q 464.1,503.4 497.5,519.0 Q 581.0,559.5 640.0,624.5 L 655.5,642.0 L 662.0,637.5 Q 664.5,632.0 663.0,622.5 L 665.0,615.5 Q 669.0,604.5 677.5,598.0 Q 687.3,589.3 707.5,591.0 L 732.5,596.0 L 742.5,600.0 Q 753.4,605.6 761.0,614.5 Q 768.8,623.7 772.0,637.5 L 773.0,649.5 L 774.0,650.5 L 774.0,668.5 L 773.0,669.5 L 773.0,689.5 L 772.0,690.5 L 772.0,706.5 L 771.0,707.5 L 771.0,720.5 L 770.0,721.5 L 770.0,734.5 L 769.0,735.5 L 769.0,750.5 L 768.0,755.5 L 771.0,770.5 L 779.0,790.5 Q 787.0,805.0 799.5,815.0 Q 810.9,824.1 825.5,830.0 L 888.5,856.0 L 935.5,870.0 L 956.5,874.0 L 968.5,874.0 L 1069.5,848.0 Q 1092.6,837.1 1109.0,819.5 L 1114.0,810.0 L 1116.0,810.5 Q 1111.1,822.1 1101.5,829.0 L 1081.0,843.5 L 1084.5,844.0 L 1170.5,819.0 L 1243.5,794.0 L 1288.0,777.0 L 1305.0,733.5 L 1314.0,701.5 L 1321.0,662.5 L 1323.0,640.5 L 1324.0,639.5 L 1324.0,631.5 L 1326.0,621.5 L 1326.0,595.5 L 1325.0,594.5 L 1325.0,579.5 L 1324.0,578.5 L 1323.0,556.5 L 1322.0,555.5 L 1322.0,547.5 L 1321.0,546.5 L 1320.0,530.5 L 1317.0,515.5 L 1317.0,508.5 L 1320.5,501.0 L 1327.5,500.0 L 1336.0,506.5 L 1337.0,511.0 Q 1333.7,512.3 1335.0,507.5 L 1330.5,504.0 L 1331.0,505.5 L 1346.0,547.5 L 1357.0,593.5 L 1359.0,611.5 L 1360.0,612.5 L 1360.0,619.5 L 1361.0,620.5 L 1362.0,643.5 L 1363.0,644.5 L 1363.0,683.5 L 1362.0,684.5 L 1362.0,697.5 L 1361.0,698.5 L 1359.0,720.5 L 1352.0,750.5 L 1353.5,750.0 Q 1370.3,744.8 1384.0,736.5 L 1385.0,725.5 L 1386.0,724.5 L 1386.0,715.5 L 1387.0,714.5 L 1387.0,702.5 L 1388.0,701.5 L 1389.0,656.5 L 1388.0,655.5 L 1387.0,623.5 L 1386.0,622.5 L 1386.0,613.5 L 1385.0,612.5 L 1385.0,605.5 L 1384.0,604.5 L 1382.0,586.5 L 1372.0,542.5 L 1366.0,523.5 L 1356.0,497.5 L 1340.0,465.5 L 1320.0,430.5 L 1308.0,414.5 L 1308.0,411.5 L 1301.0,401.5 L 1301.0,396.5 Q 1306.2,391.7 1308.0,383.5 L 1309.0,363.5 Q 1302.2,344.3 1288.5,332.0 Q 1276.6,321.9 1255.5,321.0 L 1251.5,323.0 L 1238.5,323.0 L 1215.5,311.0 L 1171.5,296.0 L 1140.5,289.0 L 1132.5,289.0 L 1131.5,288.0 L 1104.5,288.0 L 1076.5,294.0 Q 1055.8,303.3 1041.0,318.5 Q 1033.0,326.5 1029.0,338.5 Q 1026.3,346.8 1028.0,359.5 Q 1036.5,394.0 1060.5,413.0 L 1079.5,427.0 L 1110.0,457.5 Q 1143.6,493.4 1166.0,540.5 L 1172.0,556.5 L 1176.0,572.5 Q 1174.8,577.2 1177.0,578.5 L 1177.0,604.5 L 1173.0,623.5 L 1165.0,644.5 Q 1156.5,661.0 1142.5,672.0 Q 1127.9,684.4 1106.5,690.0 L 1082.5,695.0 L 1053.5,698.0 L 1016.5,707.0 L 988.5,717.0 Q 978.2,721.2 971.0,728.5 Q 963.5,736.5 961.0,749.5 L 959.0,760.5 L 959.0,780.5 Q 963.4,799.6 976.5,810.0 L 990.5,819.0 L 1013.5,819.0 L 1014.5,818.0 L 1026.5,818.0 L 1027.5,817.0 L 1064.5,814.0 L 1065.5,813.0 L 1104.5,809.0 L 1115.0,807.0 Q 1116.4,811.0 1109.5,809.0 L 1108.5,810.0 L 1101.5,810.0 L 1100.5,811.0 L 1070.5,814.0 L 1069.5,815.0 L 1061.5,815.0 L 1060.5,816.0 L 1052.5,816.0 L 1051.5,817.0 L 1043.5,817.0 L 1042.5,818.0 L 1022.5,819.0 L 1021.5,820.0 L 1007.5,820.0 L 1006.5,821.0 L 992.5,821.0 Q 977.9,815.6 969.0,804.5 Q 962.5,797.0 959.0,786.5 L 957.0,776.5 L 957.0,765.5 L 958.0,764.5 L 959.0,750.5 L 962.0,740.5 Q 965.5,731.0 972.5,725.0 L 989.5,715.0 L 1028.5,702.0 L 1062.5,695.0 L 1091.5,692.0 L 1111.5,687.0 Q 1138.1,678.1 1154.0,658.5 Q 1175.9,632.4 1176.0,584.5 L 1175.0,583.5 L 1174.0,570.5 L 1168.0,549.5 L 1149.0,511.5 Q 1119.6,464.9 1079.5,429.0 Q 1061.7,417.8 1048.0,402.5 Q 1037.7,390.8 1031.0,375.5 Q 1025.6,363.4 1026.0,345.5 L 1030.0,331.5 Q 1036.0,320.0 1045.5,312.0 Q 1059.2,299.7 1077.5,292.0 L 1093.5,288.0 L 1108.5,287.0 L 1109.5,286.0 M 325.0,487.0 L 324.0,488.0 L 313.0,488.0 L 312.0,489.0 L 304.0,489.0 L 303.0,490.0 L 285.0,492.0 L 268.0,496.0 L 261.0,499.0 Q 258.0,498.0 259.0,502.0 L 191.0,541.0 L 159.0,580.0 Q 151.0,591.0 148.0,607.0 L 148.0,628.0 L 151.0,640.0 L 154.0,646.0 L 167.0,661.0 L 170.0,662.0 L 177.0,662.0 L 192.0,657.0 L 213.0,644.0 L 221.0,635.0 Q 232.0,622.0 248.0,613.0 L 283.0,594.0 L 306.0,584.0 L 329.0,580.0 L 344.0,580.0 L 345.0,581.0 L 354.0,581.0 L 364.0,583.0 L 396.0,594.0 Q 428.0,610.0 454.0,634.0 Q 489.0,667.0 517.0,708.0 L 547.0,754.0 Q 567.0,788.0 585.0,825.0 L 603.0,855.0 Q 632.0,900.0 670.0,938.0 L 708.0,932.0 L 807.0,912.0 L 887.0,893.0 L 891.0,893.0 L 929.0,883.0 L 933.0,883.0 L 959.0,876.0 L 938.0,872.0 L 918.0,867.0 L 882.0,855.0 L 820.0,829.0 L 800.0,817.0 Q 774.0,797.0 767.0,760.0 L 767.0,742.0 L 768.0,741.0 L 768.0,728.0 L 769.0,727.0 L 769.0,714.0 L 770.0,713.0 L 770.0,699.0 L 771.0,698.0 L 771.0,680.0 L 772.0,679.0 L 772.0,646.0 Q 770.0,644.0 771.0,640.0 Q 768.0,624.0 759.0,615.0 Q 751.0,605.0 739.0,600.0 L 723.0,595.0 L 712.0,594.0 L 711.0,593.0 Q 688.0,590.0 678.0,600.0 Q 671.0,606.0 667.0,615.0 Q 663.0,621.0 665.0,634.0 L 663.0,639.0 L 659.0,642.0 L 657.0,646.0 L 637.0,624.0 Q 602.0,587.0 561.0,557.0 Q 529.0,535.0 492.0,518.0 Q 454.0,501.0 408.0,492.0 L 389.0,490.0 L 388.0,489.0 L 380.0,489.0 L 379.0,488.0 L 367.0,488.0 L 366.0,487.0 L 325.0,487.0 M 1326.0,501.0 L 1323.0,502.0 L 1320.0,505.0 L 1318.0,512.0 L 1321.0,527.0 L 1322.0,542.0 L 1323.0,543.0 L 1325.0,572.0 L 1326.0,573.0 L 1326.0,585.0 L 1327.0,586.0 L 1327.0,628.0 L 1326.0,629.0 L 1325.0,645.0 L 1324.0,646.0 L 1319.0,685.0 L 1310.0,724.0 L 1290.0,775.0 L 1291.0,776.0 L 1350.0,752.0 L 1352.0,747.0 L 1358.0,717.0 L 1359.0,703.0 L 1360.0,702.0 L 1360.0,692.0 L 1361.0,691.0 L 1361.0,668.0 L 1362.0,667.0 L 1361.0,665.0 L 1361.0,639.0 L 1360.0,638.0 L 1359.0,618.0 L 1358.0,617.0 L 1358.0,610.0 L 1352.0,577.0 L 1342.0,540.0 L 1328.0,503.0 L 1326.0,501.0 M 1384.0,739.0 L 1353.0,752.0 L 1336.0,797.0 Q 1324.0,822.0 1309.0,844.0 L 1310.0,845.0 L 1364.0,828.0 L 1367.0,821.0 L 1375.0,790.0 L 1384.0,741.0 L 1384.0,739.0 M 1349.0,754.0 L 1291.0,777.0 L 1287.0,782.0 L 1281.0,798.0 L 1264.0,832.0 L 1241.0,866.0 L 1306.0,846.0 Q 1334.0,808.0 1349.0,757.0 L 1349.0,754.0 M 545.0,755.0 Q 423.0,798.0 316.0,854.0 L 240.0,898.0 Q 202.0,921.0 170.0,950.0 L 144.0,978.0 L 134.0,996.0 L 132.0,1006.0 L 133.0,1014.0 L 137.0,1022.0 L 153.0,1035.0 L 173.0,1044.0 L 183.0,1047.0 L 209.0,1053.0 L 236.0,1056.0 L 237.0,1057.0 L 257.0,1058.0 L 258.0,1059.0 L 271.0,1059.0 L 272.0,1060.0 L 294.0,1060.0 L 295.0,1061.0 L 353.0,1061.0 L 354.0,1060.0 L 376.0,1060.0 L 377.0,1059.0 L 391.0,1059.0 L 392.0,1058.0 L 401.0,1058.0 L 402.0,1057.0 L 411.0,1057.0 L 428.0,1054.0 L 435.0,1054.0 L 443.0,1052.0 L 450.0,1052.0 L 479.0,1047.0 L 485.0,1047.0 L 486.0,1046.0 L 492.0,1046.0 L 499.0,1044.0 L 505.0,1044.0 L 506.0,1043.0 L 512.0,1043.0 L 519.0,1041.0 L 532.0,1040.0 L 539.0,1038.0 L 545.0,1038.0 L 602.0,1028.0 L 608.0,1028.0 L 621.0,1025.0 L 686.0,1015.0 L 692.0,1013.0 L 709.0,1011.0 L 715.0,1009.0 L 726.0,1008.0 L 732.0,1006.0 Q 738.0,1008.0 737.0,1004.0 Q 700.0,975.0 669.0,940.0 L 640.0,944.0 L 639.0,945.0 L 625.0,946.0 L 624.0,947.0 L 598.0,949.0 L 597.0,950.0 L 561.0,951.0 L 560.0,952.0 L 520.0,952.0 L 519.0,953.0 L 477.0,952.0 L 476.0,951.0 L 458.0,950.0 L 434.0,944.0 L 423.0,938.0 L 414.0,928.0 L 415.0,918.0 L 420.0,910.0 L 445.0,886.0 L 490.0,855.0 L 539.0,828.0 Q 556.0,819.0 577.0,814.0 L 577.0,816.0 L 574.0,816.0 L 547.0,826.0 L 508.0,846.0 Q 470.0,867.0 439.0,893.0 L 422.0,910.0 L 415.0,923.0 L 415.0,926.0 L 418.0,932.0 L 427.0,939.0 L 445.0,946.0 L 462.0,949.0 L 487.0,950.0 L 488.0,951.0 L 542.0,951.0 L 543.0,950.0 L 590.0,949.0 L 591.0,948.0 L 601.0,948.0 L 602.0,947.0 L 611.0,947.0 L 628.0,944.0 L 635.0,944.0 L 636.0,943.0 L 642.0,943.0 L 649.0,941.0 L 667.0,939.0 L 625.0,889.0 L 600.0,853.0 L 585.0,828.0 Q 567.0,791.0 547.0,757.0 L 545.0,755.0 M 1286.0,779.0 L 1251.0,793.0 L 1179.0,818.0 L 1113.0,838.0 L 1073.0,848.0 Q 1049.0,862.0 1020.0,871.0 L 989.0,877.0 L 970.0,877.0 L 969.0,876.0 L 964.0,876.0 L 902.0,892.0 L 898.0,892.0 L 805.0,914.0 L 677.0,939.0 Q 670.0,938.0 671.0,941.0 Q 703.0,975.0 740.0,1005.0 L 803.0,993.0 L 883.0,972.0 L 1054.0,923.0 L 1238.0,867.0 Q 1253.0,850.0 1264.0,829.0 L 1287.0,780.0 L 1286.0,779.0 M 1364.0,829.0 L 1308.0,847.0 Q 1285.0,880.0 1259.0,910.0 Q 1221.0,952.0 1172.0,983.0 Q 1150.0,997.0 1126.0,1007.0 L 1095.0,1018.0 L 1078.0,1022.0 L 1071.0,1021.0 L 1066.0,1015.0 L 1069.0,1006.0 L 1074.0,1001.0 L 1103.0,986.0 L 1130.0,966.0 Q 1179.0,926.0 1224.0,881.0 L 1229.0,877.0 L 1230.0,875.0 L 1234.0,870.0 L 1056.0,924.0 L 885.0,973.0 L 797.0,996.0 L 741.0,1007.0 L 784.0,1040.0 L 813.0,1053.0 L 843.0,1063.0 L 888.0,1075.0 L 928.0,1083.0 L 955.0,1086.0 L 956.0,1087.0 L 963.0,1087.0 L 964.0,1088.0 L 985.0,1089.0 L 986.0,1090.0 L 1001.0,1090.0 L 1002.0,1091.0 L 1051.0,1091.0 L 1052.0,1090.0 L 1067.0,1090.0 L 1068.0,1089.0 L 1086.0,1088.0 L 1087.0,1087.0 L 1100.0,1086.0 L 1121.0,1082.0 L 1155.0,1073.0 L 1184.0,1062.0 L 1214.0,1047.0 Q 1239.0,1032.0 1261.0,1013.0 Q 1295.0,982.0 1319.0,941.0 L 1338.0,903.0 L 1354.0,862.0 L 1364.0,831.0 L 1364.0,829.0 M 1304.0,848.0 L 1238.0,869.0 L 1224.0,884.0 Q 1221.0,883.0 1222.0,886.0 L 1221.0,886.0 L 1170.0,934.0 L 1121.0,975.0 Q 1100.0,992.0 1074.0,1003.0 Q 1069.0,1006.0 1068.0,1013.0 Q 1067.0,1019.0 1072.0,1020.0 L 1079.0,1020.0 L 1088.0,1017.0 L 1090.0,1017.0 L 1103.0,1014.0 L 1127.0,1005.0 L 1166.0,985.0 Q 1200.0,964.0 1230.0,937.0 Q 1272.0,898.0 1304.0,850.0 L 1304.0,848.0 M 1058.0,852.0 L 1023.0,862.0 L 972.0,874.0 L 972.0,875.0 L 993.0,875.0 L 1018.0,870.0 L 1044.0,861.0 L 1061.0,853.0 L 1058.0,852.0" fill="rgb(150,150,150)" opacity="1" stroke="rgb(0,0,0)" stroke-width="10"/>
	<path d="M 0.0,0.0 L 2000.0,0.0 L 2000.0,1555.0 L 0.0,1555.0 L 0.0,0.0 M 1110.0,286.0 L 1109.0,287.0 L 1094.0,288.0 L 1078.0,292.0 Q 1059.0,300.0 1046.0,312.0 Q 1036.0,320.0 1030.0,332.0 L 1026.0,346.0 Q 1026.0,363.0 1031.0,376.0 Q 1038.0,391.0 1048.0,403.0 Q 1062.0,418.0 1080.0,429.0 Q 1120.0,465.0 1149.0,512.0 L 1168.0,550.0 L 1174.0,571.0 L 1175.0,584.0 L 1176.0,585.0 Q 1176.0,632.0 1154.0,659.0 Q 1138.0,678.0 1112.0,687.0 L 1092.0,692.0 L 1063.0,695.0 L 1029.0,702.0 L 990.0,715.0 L 973.0,725.0 Q 966.0,731.0 962.0,741.0 L 959.0,751.0 L 958.0,765.0 L 957.0,766.0 L 957.0,777.0 L 959.0,787.0 Q 963.0,797.0 969.0,805.0 Q 978.0,816.0 993.0,821.0 L 1007.0,821.0 L 1008.0,820.0 L 1022.0,820.0 L 1023.0,819.0 L 1043.0,818.0 L 1044.0,817.0 L 1052.0,817.0 L 1053.0,816.0 L 1061.0,816.0 L 1062.0,815.0 L 1070.0,815.0 L 1071.0,814.0 L 1101.0,811.0 L 1102.0,810.0 L 1109.0,810.0 L 1110.0,809.0 Q 1116.0,811.0 1115.0,807.0 L 1105.0,809.0 L 1066.0,813.0 L 1065.0,814.0 L 1028.0,817.0 L 1027.0,818.0 L 1015.0,818.0 L 1014.0,819.0 L 991.0,819.0 L 977.0,810.0 Q 963.0,800.0 959.0,781.0 L 959.0,761.0 L 961.0,750.0 Q 964.0,737.0 971.0,729.0 Q 978.0,721.0 989.0,717.0 L 1017.0,707.0 L 1054.0,698.0 L 1083.0,695.0 L 1107.0,690.0 Q 1128.0,684.0 1143.0,672.0 Q 1156.0,661.0 1165.0,645.0 L 1173.0,624.0 L 1177.0,605.0 L 1177.0,579.0 Q 1175.0,577.0 1176.0,573.0 L 1172.0,557.0 L 1166.0,541.0 Q 1144.0,493.0 1110.0,458.0 L 1080.0,427.0 L 1061.0,413.0 Q 1037.0,394.0 1028.0,360.0 Q 1026.0,347.0 1029.0,339.0 Q 1033.0,327.0 1041.0,319.0 Q 1056.0,303.0 1077.0,294.0 L 1105.0,288.0 L 1132.0,288.0 L 1133.0,289.0 L 1141.0,289.0 L 1172.0,296.0 L 1216.0,311.0 L 1239.0,323.0 L 1252.0,323.0 L 1256.0,321.0 Q 1277.0,322.0 1289.0,332.0 Q 1302.0,344.0 1309.0,364.0 L 1308.0,384.0 Q 1306.0,392.0 1301.0,397.0 L 1301.0,402.0 L 1308.0,412.0 L 1308.0,415.0 L 1320.0,431.0 L 1340.0,466.0 L 1356.0,498.0 L 1366.0,524.0 L 1372.0,543.0 L 1382.0,587.0 L 1384.0,605.0 L 1385.0,606.0 L 1385.0,613.0 L 1386.0,614.0 L 1386.0,623.0 L 1387.0,624.0 L 1388.0,656.0 L 1389.0,657.0 L 1388.0,702.0 L 1387.0,703.0 L 1387.0,715.0 L 1386.0,716.0 L 1386.0,725.0 L 1385.0,726.0 L 1384.0,737.0 Q 1370.0,745.0 1354.0,750.0 L 1352.0,751.0 L 1359.0,721.0 L 1361.0,699.0 L 1362.0,698.0 L 1362.0,685.0 L 1363.0,684.0 L 1363.0,645.0 L 1362.0,644.0 L 1361.0,621.0 L 1360.0,620.0 L 1360.0,613.0 L 1359.0,612.0 L 1357.0,594.0 L 1346.0,548.0 L 1331.0,506.0 L 1331.0,504.0 L 1335.0,508.0 Q 1334.0,512.0 1337.0,511.0 L 1336.0,507.0 L 1328.0,500.0 L 1321.0,501.0 L 1317.0,509.0 L 1317.0,516.0 L 1320.0,531.0 L 1321.0,547.0 L 1322.0,548.0 L 1322.0,556.0 L 1323.0,557.0 L 1324.0,579.0 L 1325.0,580.0 L 1325.0,595.0 L 1326.0,596.0 L 1326.0,622.0 L 1324.0,632.0 L 1324.0,640.0 L 1323.0,641.0 L 1321.0,663.0 L 1314.0,702.0 L 1305.0,734.0 L 1288.0,777.0 L 1244.0,794.0 L 1171.0,819.0 L 1081.0,845.0 L 1079.0,845.0 L 1102.0,829.0 Q 1111.0,822.0 1116.0,811.0 L 1114.0,810.0 L 1109.0,820.0 Q 1093.0,837.0 1070.0,848.0 L 969.0,874.0 L 957.0,874.0 L 936.0,870.0 L 889.0,856.0 L 826.0,830.0 Q 811.0,824.0 800.0,815.0 Q 787.0,805.0 779.0,791.0 L 771.0,771.0 L 768.0,756.0 L 769.0,751.0 L 769.0,736.0 L 770.0,735.0 L 770.0,722.0 L 771.0,721.0 L 771.0,708.0 L 772.0,707.0 L 772.0,691.0 L 773.0,690.0 L 773.0,670.0 L 774.0,669.0 L 774.0,651.0 L 773.0,650.0 L 772.0,638.0 Q 769.0,624.0 761.0,615.0 Q 753.0,606.0 743.0,600.0 L 733.0,596.0 L 708.0,591.0 Q 687.0,589.0 678.0,598.0 Q 669.0,605.0 665.0,616.0 L 663.0,623.0 Q 665.0,632.0 662.0,638.0 L 656.0,642.0 L 640.0,625.0 Q 581.0,560.0 498.0,519.0 Q 464.0,503.0 425.0,494.0 L 392.0,488.0 L 375.0,487.0 L 374.0,486.0 L 358.0,486.0 L 357.0,485.0 L 334.0,485.0 L 333.0,486.0 L 307.0,487.0 L 306.0,488.0 L 282.0,491.0 L 256.0,499.0 Q 253.0,498.0 254.0,501.0 L 256.0,502.0 L 190.0,540.0 Q 187.0,541.0 187.0,545.0 L 169.0,564.0 L 156.0,582.0 L 149.0,597.0 L 146.0,611.0 L 146.0,624.0 L 149.0,639.0 Q 155.0,652.0 165.0,661.0 L 169.0,663.0 L 179.0,663.0 L 189.0,660.0 Q 203.0,654.0 214.0,645.0 L 223.0,635.0 Q 233.0,624.0 246.0,616.0 Q 261.0,605.0 281.0,598.0 L 286.0,594.0 L 305.0,586.0 L 324.0,582.0 L 349.0,582.0 L 350.0,583.0 L 362.0,584.0 L 390.0,593.0 Q 426.0,610.0 454.0,636.0 Q 507.0,687.0 545.0,754.0 Q 432.0,793.0 332.0,844.0 Q 279.0,871.0 231.0,902.0 Q 197.0,923.0 169.0,949.0 L 143.0,977.0 Q 134.0,986.0 131.0,1002.0 L 131.0,1012.0 L 136.0,1023.0 L 152.0,1036.0 L 166.0,1043.0 L 192.0,1051.0 L 218.0,1056.0 L 240.0,1058.0 L 241.0,1059.0 L 250.0,1059.0 L 251.0,1060.0 L 279.0,1061.0 L 280.0,1062.0 L 314.0,1062.0 L 315.0,1063.0 L 385.0,1061.0 L 386.0,1060.0 L 407.0,1059.0 L 408.0,1058.0 L 446.0,1054.0 L 447.0,1053.0 L 454.0,1053.0 L 483.0,1048.0 L 489.0,1048.0 L 490.0,1047.0 L 496.0,1047.0 L 503.0,1045.0 L 516.0,1044.0 L 523.0,1042.0 L 529.0,1042.0 L 536.0,1040.0 L 542.0,1040.0 L 549.0,1038.0 L 555.0,1038.0 L 568.0,1035.0 L 574.0,1035.0 L 587.0,1032.0 L 593.0,1032.0 L 630.0,1025.0 L 636.0,1025.0 L 672.0,1018.0 L 701.0,1014.0 L 707.0,1012.0 L 718.0,1011.0 L 724.0,1009.0 L 729.0,1009.0 L 735.0,1007.0 Q 741.0,1006.0 743.0,1009.0 L 786.0,1043.0 Q 811.0,1055.0 841.0,1064.0 L 877.0,1074.0 L 919.0,1083.0 L 950.0,1087.0 L 951.0,1088.0 L 958.0,1088.0 L 959.0,1089.0 L 967.0,1089.0 L 968.0,1090.0 L 991.0,1091.0 L 992.0,1092.0 L 1013.0,1092.0 L 1014.0,1093.0 L 1040.0,1093.0 L 1041.0,1092.0 L 1061.0,1092.0 L 1062.0,1091.0 L 1083.0,1090.0 L 1084.0,1089.0 L 1097.0,1088.0 L 1119.0,1084.0 L 1147.0,1077.0 Q 1214.0,1057.0 1261.0,1015.0 Q 1295.0,984.0 1319.0,944.0 L 1336.0,911.0 L 1347.0,885.0 L 1366.0,828.0 L 1455.0,799.0 L 1574.0,750.0 L 1663.0,710.0 Q 1718.0,684.0 1770.0,653.0 L 1809.0,627.0 L 1838.0,603.0 L 1840.0,600.0 Q 1842.0,601.0 1841.0,598.0 L 1843.0,598.0 L 1860.0,576.0 Q 1866.0,567.0 1868.0,555.0 L 1867.0,541.0 L 1860.0,527.0 Q 1849.0,514.0 1833.0,508.0 L 1806.0,500.0 L 1783.0,497.0 L 1782.0,496.0 L 1764.0,495.0 L 1763.0,494.0 L 1714.0,493.0 L 1713.0,492.0 L 1705.0,492.0 L 1704.0,493.0 L 1645.0,494.0 L 1644.0,495.0 L 1629.0,495.0 L 1628.0,496.0 L 1615.0,496.0 L 1614.0,497.0 L 1570.0,500.0 L 1569.0,501.0 L 1525.0,505.0 L 1524.0,506.0 L 1517.0,506.0 L 1516.0,507.0 L 1509.0,507.0 L 1508.0,508.0 L 1501.0,508.0 L 1486.0,511.0 L 1458.0,514.0 L 1451.0,516.0 L 1438.0,517.0 L 1425.0,520.0 L 1419.0,520.0 L 1394.0,525.0 L 1389.0,525.0 L 1377.0,528.0 Q 1371.0,526.0 1372.0,530.0 L 1435.0,519.0 L 1448.0,518.0 L 1455.0,516.0 L 1482.0,513.0 L 1483.0,512.0 L 1497.0,511.0 L 1498.0,510.0 L 1529.0,507.0 L 1530.0,506.0 L 1565.0,503.0 L 1566.0,502.0 L 1575.0,502.0 L 1576.0,501.0 L 1586.0,501.0 L 1587.0,500.0 L 1597.0,500.0 L 1598.0,499.0 L 1609.0,499.0 L 1610.0,498.0 L 1654.0,496.0 L 1655.0,495.0 L 1679.0,495.0 L 1680.0,494.0 L 1735.0,494.0 L 1736.0,495.0 L 1755.0,495.0 L 1756.0,496.0 L 1767.0,496.0 L 1768.0,497.0 L 1792.0,499.0 L 1816.0,504.0 L 1831.0,509.0 Q 1844.0,514.0 1854.0,522.0 Q 1863.0,529.0 1866.0,543.0 L 1866.0,557.0 L 1863.0,567.0 L 1849.0,589.0 L 1822.0,615.0 L 1777.0,647.0 Q 1725.0,678.0 1670.0,705.0 L 1598.0,738.0 L 1471.0,791.0 L 1422.0,809.0 L 1367.0,826.0 L 1379.0,779.0 L 1385.0,745.0 L 1385.0,738.0 L 1427.0,720.0 L 1498.0,684.0 L 1541.0,658.0 L 1567.0,638.0 Q 1577.0,630.0 1582.0,617.0 Q 1583.0,608.0 1579.0,606.0 L 1569.0,597.0 L 1548.0,589.0 L 1531.0,586.0 L 1500.0,585.0 L 1499.0,584.0 Q 1492.0,582.0 1491.0,585.0 L 1465.0,585.0 L 1464.0,586.0 L 1441.0,587.0 L 1440.0,588.0 L 1432.0,588.0 L 1431.0,589.0 L 1423.0,589.0 L 1422.0,590.0 L 1401.0,592.0 L 1394.0,594.0 Q 1388.0,592.0 1389.0,596.0 L 1412.0,592.0 L 1427.0,591.0 L 1428.0,590.0 L 1458.0,588.0 L 1459.0,587.0 L 1475.0,587.0 L 1476.0,586.0 L 1513.0,586.0 L 1514.0,587.0 L 1526.0,587.0 L 1527.0,588.0 L 1540.0,589.0 L 1564.0,596.0 L 1575.0,603.0 L 1580.0,610.0 L 1579.0,621.0 L 1571.0,632.0 L 1547.0,652.0 L 1502.0,680.0 Q 1446.0,711.0 1386.0,736.0 L 1387.0,722.0 L 1388.0,721.0 L 1388.0,712.0 L 1389.0,711.0 L 1389.0,697.0 L 1390.0,696.0 L 1390.0,643.0 L 1389.0,642.0 L 1388.0,618.0 L 1387.0,617.0 L 1384.0,589.0 L 1373.0,541.0 L 1356.0,493.0 L 1338.0,456.0 L 1302.0,400.0 L 1303.0,396.0 L 1308.0,389.0 L 1311.0,375.0 L 1310.0,362.0 Q 1305.0,348.0 1297.0,339.0 L 1286.0,328.0 Q 1275.0,322.0 1262.0,319.0 Q 1255.0,318.0 1253.0,321.0 L 1238.0,321.0 L 1222.0,312.0 L 1202.0,304.0 L 1154.0,290.0 L 1138.0,287.0 L 1129.0,287.0 L 1128.0,286.0 L 1110.0,286.0" fill="rgb(255,255,255)" opacity="1" stroke="rgb(0,0,0)" stroke-width="10"/>
	<path d="M 324.5,487.0 L 365.5,487.0 L 366.5,488.0 L 378.5,488.0 L 379.5,489.0 L 387.5,489.0 L 388.5,490.0 L 407.5,492.0 Q 453.6,500.9 491.5,518.0 Q 528.8,534.7 560.5,557.0 Q 602.5,586.5 637.0,623.5 L 656.5,646.0 L 658.5,642.0 L 663.0,638.5 L 665.0,633.5 Q 663.4,621.4 667.0,614.5 Q 670.6,605.6 677.5,600.0 Q 687.6,590.1 710.5,593.0 L 711.5,594.0 L 722.5,595.0 L 738.5,600.0 Q 750.8,605.2 759.0,614.5 Q 767.7,624.3 771.0,639.5 Q 769.7,644.3 772.0,645.5 L 772.0,678.5 L 771.0,679.5 L 771.0,697.5 L 770.0,698.5 L 770.0,712.5 L 769.0,713.5 L 769.0,726.5 L 768.0,727.5 L 768.0,740.5 L 767.0,741.5 L 767.0,759.5 Q 774.0,797.5 799.5,817.0 L 819.5,829.0 L 881.5,855.0 L 917.5,867.0 L 937.5,872.0 L 959.0,875.5 L 932.5,883.0 L 928.5,883.0 L 890.5,893.0 L 886.5,893.0 L 806.5,912.0 L 707.5,932.0 L 669.5,938.0 Q 632.4,900.1 603.0,854.5 L 585.0,824.5 Q 567.5,787.5 547.0,753.5 L 517.0,707.5 Q 488.9,667.1 453.5,634.0 Q 428.3,610.2 395.5,594.0 L 363.5,583.0 L 353.5,581.0 L 344.5,581.0 L 343.5,580.0 L 328.5,580.0 L 305.5,584.0 L 282.5,594.0 L 247.5,613.0 Q 232.2,621.7 221.0,634.5 L 212.5,644.0 L 191.5,657.0 L 176.5,662.0 L 169.5,662.0 L 167.0,661.0 L 154.0,645.5 L 151.0,639.5 L 148.0,627.5 L 148.0,606.5 Q 151.3,590.8 159.0,579.5 L 190.5,541.0 L 259.0,502.0 Q 257.5,498.3 260.5,499.0 L 267.5,496.0 L 284.5,492.0 L 302.5,490.0 L 303.5,489.0 L 311.5,489.0 L 312.5,488.0 L 323.5,488.0 L 324.5,487.0" fill="rgb(255,255,255)" opacity="1" stroke="rgb(0,0,0)" stroke-width="10"/>
	<path d="M 1325.5,501.0 L 1328.0,502.5 L 1342.0,539.5 L 1352.0,576.5 L 1358.0,609.5 L 1358.0,616.5 L 1359.0,617.5 L 1360.0,637.5 L 1361.0,638.5 L 1361.0,664.5 L 1362.0,666.5 L 1361.0,667.5 L 1361.0,690.5 L 1360.0,691.5 L 1360.0,701.5 L 1359.0,702.5 L 1358.0,716.5 L 1352.0,746.5 L 1350.0,752.0 L 1290.5,776.0 L 1290.0,774.5 L 1310.0,723.5 L 1319.0,684.5 L 1324.0,645.5 L 1325.0,644.5 L 1326.0,628.5 L 1327.0,627.5 L 1327.0,585.5 L 1326.0,584.5 L 1326.0,572.5 L 1325.0,571.5 L 1323.0,542.5 L 1322.0,541.5 L 1321.0,526.5 L 1318.0,511.5 L 1320.0,504.5 L 1322.5,502.0 L 1325.5,501.0" fill="rgb(255,255,255)" opacity="1" stroke="rgb(0,0,0)" stroke-width="10"/>
	<path d="M 1383.5,739.0 L 1384.0,740.5 L 1375.0,789.5 L 1367.0,820.5 L 1363.5,828.0 L 1309.5,845.0 L 1309.0,843.5 Q 1324.4,821.9 1336.0,796.5 L 1352.5,752.0 L 1383.5,739.0" fill="rgb(255,255,255)" opacity="1" stroke="rgb(0,0,0)" stroke-width="10"/>
	<path d="M 1348.5,754.0 L 1349.0,756.5 Q 1333.9,807.9 1305.5,846.0 L 1241.0,866.0 L 1264.0,831.5 L 1281.0,797.5 L 1287.0,781.5 L 1290.5,777.0 L 1348.5,754.0" fill="rgb(255,255,255)" opacity="1" stroke="rgb(0,0,0)" stroke-width="10"/>
	<path d="M 544.5,755.0 L 547.0,756.5 Q 567.5,790.5 585.0,827.5 L 600.0,852.5 L 625.0,888.5 L 667.0,939.0 L 648.5,941.0 L 641.5,943.0 L 635.5,943.0 L 634.5,944.0 L 627.5,944.0 L 610.5,947.0 L 601.5,947.0 L 600.5,948.0 L 590.5,948.0 L 589.5,949.0 L 542.5,950.0 L 541.5,951.0 L 487.5,951.0 L 486.5,950.0 L 461.5,949.0 L 444.5,946.0 L 426.5,939.0 L 418.0,931.5 L 415.0,925.5 L 415.0,922.5 L 422.0,909.5 L 438.5,893.0 Q 470.2,866.7 507.5,846.0 L 546.5,826.0 L 573.5,816.0 L 577.0,816.0 L 576.5,814.0 Q 555.6,819.1 538.5,828.0 L 489.5,855.0 L 444.5,886.0 L 420.0,909.5 L 415.0,917.5 L 414.0,927.5 L 422.5,938.0 L 433.5,944.0 L 457.5,950.0 L 475.5,951.0 L 476.5,952.0 L 518.5,953.0 L 519.5,952.0 L 559.5,952.0 L 560.5,951.0 L 596.5,950.0 L 597.5,949.0 L 623.5,947.0 L 624.5,946.0 L 638.5,945.0 L 639.5,944.0 L 668.5,940.0 Q 700.2,975.1 737.0,1004.0 Q 738.4,1008.0 731.5,1006.0 L 725.5,1008.0 L 714.5,1009.0 L 708.5,1011.0 L 691.5,1013.0 L 685.5,1015.0 L 620.5,1025.0 L 607.5,1028.0 L 601.5,1028.0 L 544.5,1038.0 L 538.5,1038.0 L 531.5,1040.0 L 518.5,1041.0 L 511.5,1043.0 L 505.5,1043.0 L 504.5,1044.0 L 498.5,1044.0 L 491.5,1046.0 L 485.5,1046.0 L 484.5,1047.0 L 478.5,1047.0 L 449.5,1052.0 L 442.5,1052.0 L 434.5,1054.0 L 427.5,1054.0 L 410.5,1057.0 L 401.5,1057.0 L 400.5,1058.0 L 391.5,1058.0 L 390.5,1059.0 L 376.5,1059.0 L 375.5,1060.0 L 353.5,1060.0 L 352.5,1061.0 L 294.5,1061.0 L 293.5,1060.0 L 271.5,1060.0 L 270.5,1059.0 L 257.5,1059.0 L 256.5,1058.0 L 236.5,1057.0 L 235.5,1056.0 L 208.5,1053.0 L 182.5,1047.0 L 172.5,1044.0 L 152.5,1035.0 L 137.0,1021.5 L 133.0,1013.5 L 132.0,1005.5 L 134.0,995.5 L 144.0,977.5 L 169.5,950.0 Q 201.9,921.4 239.5,898.0 L 315.5,854.0 Q 423.0,797.5 544.5,755.0" fill="rgb(255,255,255)" opacity="1" stroke="rgb(0,0,0)" stroke-width="10"/>
	<path d="M 1285.5,779.0 L 1287.0,779.5 L 1264.0,828.5 Q 1252.9,849.9 1237.5,867.0 L 1053.5,923.0 L 882.5,972.0 L 802.5,993.0 L 739.5,1005.0 Q 703.0,975.0 671.0,940.5 Q 670.4,937.8 676.5,939.0 L 804.5,914.0 L 897.5,892.0 L 901.5,892.0 L 963.5,876.0 L 968.5,876.0 L 969.5,877.0 L 988.5,877.0 L 1019.5,871.0 Q 1048.8,862.3 1072.5,848.0 L 1112.5,838.0 L 1178.5,818.0 L 1250.5,793.0 L 1285.5,779.0" fill="rgb(255,255,255)" opacity="1" stroke="rgb(0,0,0)" stroke-width="10"/>
	<path d="M 1363.5,829.0 L 1364.0,830.5 L 1354.0,861.5 L 1338.0,902.5 L 1319.0,940.5 Q 1295.0,982.0 1260.5,1013.0 Q 1239.1,1032.1 1213.5,1047.0 L 1183.5,1062.0 L 1154.5,1073.0 L 1120.5,1082.0 L 1099.5,1086.0 L 1086.5,1087.0 L 1085.5,1088.0 L 1067.5,1089.0 L 1066.5,1090.0 L 1051.5,1090.0 L 1050.5,1091.0 L 1001.5,1091.0 L 1000.5,1090.0 L 985.5,1090.0 L 984.5,1089.0 L 963.5,1088.0 L 962.5,1087.0 L 955.5,1087.0 L 954.5,1086.0 L 927.5,1083.0 L 887.5,1075.0 L 842.5,1063.0 L 812.5,1053.0 L 783.5,1040.0 L 741.0,1006.5 L 796.5,996.0 L 884.5,973.0 L 1055.5,924.0 L 1233.5,870.0 L 1230.0,874.5 L 1228.5,877.0 L 1223.5,881.0 Q 1178.9,925.9 1129.5,966.0 L 1102.5,986.0 L 1073.5,1001.0 L 1069.0,1005.5 L 1066.0,1014.5 L 1070.5,1021.0 L 1077.5,1022.0 L 1094.5,1018.0 L 1125.5,1007.0 Q 1150.1,996.6 1171.5,983.0 Q 1220.9,951.9 1259.0,909.5 Q 1285.4,880.4 1307.5,847.0 L 1363.5,829.0" fill="rgb(255,255,255)" opacity="1" stroke="rgb(0,0,0)" stroke-width="10"/>
	<path d="M 1303.5,848.0 L 1304.0,849.5 Q 1271.6,898.1 1229.5,937.0 Q 1200.4,963.9 1165.5,985.0 L 1126.5,1005.0 L 1102.5,1014.0 L 1089.5,1017.0 L 1087.5,1017.0 L 1078.5,1020.0 L 1071.5,1020.0 Q 1067.3,1018.7 1068.0,1012.5 Q 1068.9,1005.9 1073.5,1003.0 Q 1099.6,991.6 1120.5,975.0 L 1169.5,934.0 L 1220.5,886.0 L 1222.0,886.0 Q 1220.9,883.3 1223.5,884.0 L 1237.5,869.0 L 1303.5,848.0" fill="rgb(255,255,255)" opacity="1" stroke="rgb(0,0,0)" stroke-width="10"/>
	<path d="M 1061.5,851.0 L 1063.0,851.5 L 1043.5,861.0 L 1017.5,870.0 L 992.5,875.0 L 971.5,875.0 L 971.5,874.0 L 1022.5,862.0 L 1061.5,851.0" fill="rgb(255,255,255)" opacity="1" stroke="rgb(0,0,0)" stroke-width="10"/>
</svg>
