<?xml version="1.0" encoding="UTF-8" standalone="no"?>
<svg
   xmlns:dc="http://purl.org/dc/elements/1.1/"
   xmlns:cc="http://creativecommons.org/ns#"
   xmlns:rdf="http://www.w3.org/1999/02/22-rdf-syntax-ns#"
   xmlns:svg="http://www.w3.org/2000/svg"
   xmlns="http://www.w3.org/2000/svg"
   id="svg6090"
   version="1.1"
   viewBox="0 0 420 497"
   height="497mm"
   width="420mm">
  <defs
     id="defs6084" />
  <metadata
     id="metadata6087">
    <rdf:RDF>
      <cc:Work
         rdf:about="">
        <dc:format>image/svg+xml</dc:format>
        <dc:type
           rdf:resource="http://purl.org/dc/dcmitype/StillImage" />
        <dc:title></dc:title>
      </cc:Work>
    </rdf:RDF>
  </metadata>
  <g
     transform="translate(0,200)"
     id="layer1">
    <path
       id="path6218"
       d="m 165.49307,250.28302 c -7.25969,-0.27856 -13.82475,-1.35382 -20.36259,-3.33513 -18.19224,-5.5132 -29.43028,-16.63044 -33.74359,-33.38084 -0.68603,-2.66417 -1.45206,-7.24027 -1.45476,-8.69045 -0.001,-0.78139 -0.18657,-0.94911 -2.71354,-2.45827 -7.18114,-4.28871 -12.641665,-9.49137 -17.169021,-16.35823 -3.216656,-4.87887 -6.195129,-11.639 -7.497043,-17.01575 -0.624536,-2.57927 -0.867712,-3.94891 -2.391124,-13.46766 -0.394745,-2.4665 -1.105117,-5.63171 -1.632964,-7.27605 -1.55132,-4.83261 -4.295632,-10.19905 -7.171105,-14.02291 -1.215982,-1.61703 -4.53713,-5.15938 -4.837221,-5.15938 -0.0909,0 -0.244731,1.63711 -0.341831,3.63802 -0.205507,4.23477 -0.62317,5.6918 -2.118563,7.39066 -1.581579,1.79676 -2.801765,2.32844 -5.326015,2.32072 -1.709012,-0.005 -2.396929,-0.13727 -3.571875,-0.68554 -2.166542,-1.01097 -5.579091,-3.6608 -8.95777,-6.95563 -4.90787,-4.7861 -7.430504,-8.6527 -8.816419,-13.51344 -0.839478,-2.94425 -0.83486,-8.52087 0.0096,-11.62738 2.707999,-9.961522 11.255519,-16.846712 23.516272,-18.942792 3.4114,-0.5832 10.870554,-0.71512 13.776094,-0.24362 5.01953,0.81454 8.515588,2.96754 14.923455,9.19042 2.019144,1.960852 3.713022,3.520622 3.764177,3.466152 0.05115,-0.0545 -0.06884,-0.87293 -0.26666,-1.81882 -0.308941,-1.477232 -1.013368,-6.671142 -1.234297,-9.100752 -0.06429,-0.70697 -0.326107,-0.88383 -3.376981,-2.28114 -6.277803,-2.87526 -10.536393,-5.6564 -14.727446,-9.618004 -4.210664,-3.98014 -7.454085,-8.864425 -8.807757,-13.263641 -1.334894,-4.338204 -2.23821,-13.035317 -2.239672,-21.563541 -0.0012,-6.978536 0.112108,-7.77018 2.773131,-19.375654 C 67.293667,18.30113 67.683043,15.588553 67.501732,12.172523 67.31876,8.7252382 66.799293,6.6328282 65.36578,3.5689192 c -1.246915,-2.665082 -2.412778,-4.152006 -3.828901,-4.883314 -1.148345,-0.593024 -2.699102,-2.181733 -3.364083,-3.446415 -0.734137,-1.396204 -0.673991,-4.5375299 0.115478,-6.0311922 1.799857,-3.405301 4.902391,-5.084874 8.723334,-4.722416 0.976945,0.09267 3.597724,0.645359 5.823958,1.228186 9.272095,2.42744 15.587336,5.5806542 20.392723,10.1821342 2.58559,2.475875 3.654866,3.938584 6.627415,9.065937 1.201946,2.07324 2.303906,3.842797 2.448806,3.932348 0.42418,0.26216 1.94408,-1.402736 2.71167,-2.970371 0.84304,-1.721702 1.66763,-4.807855 1.88882,-7.069148 0.13745,-1.40512 0.0281,-2.046644 -0.78905,-4.630385 -1.23396,-3.9015671 -1.39863,-5.3530122 -0.82944,-7.3109712 0.34572,-1.189239 0.75342,-1.840318 1.81728,-2.902162 1.60314,-1.600089 3.05353,-2.124879 5.40296,-1.954935 2.14575,0.155207 3.49017,0.898488 6.68424,3.695475 4.66659,4.086445 6.24308,4.8872032 12.93288,6.5691144 4.97295,1.2502678 7.01126,1.9770858 9.99304,3.5633028 2.52277,1.342043 2.46429,1.387326 2.47047,-1.912843 0.005,-2.5136655 -0.51606,-4.9549172 -2.23992,-10.5004332 -3.15194,-10.139517 -4.12726,-14.882969 -4.13572,-20.113932 -0.006,-3.741116 0.37672,-6.07831 1.47206,-8.988348 1.04428,-2.774392 3.00562,-5.871197 5.10553,-8.061211 1.05497,-1.100244 1.91817,-2.007619 1.91823,-2.01639 5e-5,-0.0088 -1.74506,0.03655 -3.87803,0.100724 -5.43727,0.163579 -6.68264,-0.116567 -11.73229,-2.639179 -4.50816,-2.252104 -6.78841,-3.840961 -9.1772,-6.394584 -3.0094,-3.217051 -4.84372,-6.743377 -5.84672,-11.239812 -0.64855,-2.90744 -0.63297,-10.697067 0.0276,-13.810157 1.23896,-5.838719 4.10353,-12.242502 9.70507,-21.695832 6.48136,-10.93816 8.13208,-15.67347 7.88592,-22.62188 -0.11456,-3.23375 -0.29924,-3.75257 -2.2133,-6.2177 -1.6912,-2.17811 -2.33409,-3.60054 -2.44999,-5.42079 -0.19458,-3.05583 1.01742,-5.36983 3.56068,-6.79813 3.68442,-2.06919 8.18986,-0.70163 11.77593,3.5744 3.76697,4.49174 8.59841,11.93409 11.19415,17.24347 2.46978,5.05175 4.37742,11.39936 4.37742,14.5657 0,0.63018 0.0987,1.2068 0.21942,1.28139 0.12068,0.0746 0.79444,-0.0375 1.49726,-0.24897 0.70281,-0.21152 1.71396,-0.38457 2.24699,-0.38457 1.24025,0 3.35109,0.69926 4.37071,1.44789 0.43656,0.32054 1.74625,1.07921 2.91041,1.68593 6.81853,3.55357 11.52137,10.69643 13.06356,19.841438 l 0.46116,2.734638 34.75781,-0.03358 34.7578,-0.03358 2.07955,-1.0819 c 1.14376,-0.595048 2.0259,-1.135562 1.96031,-1.201147 -0.0656,-0.06558 -0.37787,0.01918 -0.69397,0.188341 -0.91709,0.49081 -3.92703,0.437864 -5.48946,-0.09656 -1.63841,-0.560417 -3.92762,-2.188639 -6.02263,-4.283647 -3.64027,-3.640273 -5.28231,-7.958343 -4.63422,-12.186573 0.8111,-5.29173 5.49935,-10.64464 12.31009,-14.0553 4.79618,-2.40181 9.81514,-3.5644 15.47813,-3.58535 13.74954,-0.0509 22.19714,6.6235 26.29917,20.77872 1.41039,4.86695 1.9025,10.957213 1.20407,14.901346 -0.95621,5.399923 -3.82837,10.86142 -9.61372,18.280797 -4.9251,6.316162 -9.33905,9.550948 -16.83119,12.334843 -4.96593,1.845217 -11.9414,3.138083 -22.35729,4.143796 -3.05594,0.295068 -6.18133,0.606478 -6.94531,0.692017 l -1.38907,0.155528 0.009,2.957525 c 0.0161,5.086628 0.80897,14.444173 1.28986,15.222262 0.13226,0.214009 0.91112,0.114501 2.74507,-0.350721 6.54195,-1.659501 12.56847,-1.903878 15.27032,-0.61922 2.84671,1.353532 4.5198,3.782274 4.53319,6.580579 0.0174,3.645374 -1.65102,5.965133 -5.93195,8.24759 -2.13604,1.138867 -3.01671,2.120921 -3.38741,3.777369 -0.63795,2.850681 0.38293,5.944555 5.06379,15.3462552 4.0486,8.131792 4.30008,9.657215 2.88854,17.5212848 -0.67662,3.769672 -0.57513,4.760362 0.62014,6.053222 l 0.84391,0.912804 1.85525,-0.893622 c 1.93308,-0.931119 3.4384,-2.347733 3.73022,-3.51041 0.093,-0.370681 0.0352,-1.340855 -0.12847,-2.155941 -0.42453,-2.113891 -0.36771,-6.8467998 0.10943,-9.1150568 0.49772,-2.366055 1.77189,-5.374444 3.17379,-7.493526 0.57715,-0.8724 2.36575,-2.895867 3.97466,-4.4965962 3.7423,-3.723272 6.15069,-7.380414 7.56234,-11.483464 0.63193,-1.83674 0.61366,-2.479193 -0.12132,-4.26557 -0.94626,-2.299898 -2.38182,-4.252371 -5.76359,-7.838933 -4.32339,-4.585205 -5.2889,-6.782805 -4.36948,-9.945465 1.09429,-3.764227 4.48674,-5.485164 10.82353,-5.490612 15.4185,-0.01326 27.04825,7.215759 34.04888,21.16467 4.87302,9.709621 4.59881,17.2945997 -1.09807,30.3720252 -3.00307,6.8937068 -3.34978,8.2958268 -2.62623,10.6206618 0.65757,2.112759 2.37435,4.92433 8.08869,13.246894 8.10368,11.80253 9.67771,14.297083 11.13184,17.642099 0.47233,1.086506 0.91617,1.877528 0.98631,1.757828 0.2794,-0.476832 1.28482,-5.292908 2.31008,-11.065552 1.64967,-9.288447 2.91867,-13.916848 4.89669,-17.859502 3.40143,-6.779792 10.78,-11.9094348 20.71037,-14.3980318 3.96012,-0.992425 8.08921,-1.566166 11.4332,-1.588664 2.82149,-0.01897 3.16344,0.03529 4.70347,0.746464 2.85766,1.319649 4.27657,3.498958 4.28654,6.5837538 0.01,2.972093 -0.9398,4.587618 -4.08921,6.958054 -2.1858,1.645169 -3.22011,3.294925 -4.4654,7.122509 -1.67391,5.144947 -1.87598,6.476233 -1.84732,12.170833 0.0159,3.134736 0.23093,7.241675 0.52776,10.075685 0.46802,4.46791 0.47318,4.922462 0.0783,6.879167 -0.91517,4.535069 -4.44489,9.269946 -12.40039,16.634208 -2.32023,2.147819 -4.6882,4.577215 -5.26211,5.398659 -1.85113,2.649556 -3.60598,6.652905 -2.91629,6.652905 0.35528,0 1.61695,-0.892926 3.33139,-2.357702 1.96742,-1.680924 4.41151,-4.668295 6.80252,-8.314573 3.36889,-5.137555 4.68508,-6.119019 8.20801,-6.12049 2.36429,-0.0011 3.15788,0.306097 4.93115,1.908133 1.86179,1.682019 2.95542,4.564176 3.81722,10.059892 0.61314,3.910221 0.40759,11.732251 -0.40844,15.540361 -1.61433,7.533752 -5.06412,14.401892 -9.81003,19.530592 -1.05254,1.13744 -3.65996,3.48067 -5.79425,5.20718 -9.4072,7.60992 -14.86098,14.61135 -18.90016,24.26351 l -0.68665,1.64087 0.64963,2.72476 c 2.002,8.39713 1.49482,18.15203 -1.62716,31.29735 -1.44989,6.10481 -2.66388,8.85724 -4.69522,10.64529 -1.37294,1.20852 -2.66681,1.66024 -4.75538,1.66024 -2.69576,0 -4.94334,-1.42695 -6.1645,-3.91374 -1.0383,-2.11434 -0.97531,-4.2821 0.27064,-9.31543 2.41316,-9.74849 3.22943,-15.43883 3.01602,-21.02519 -0.29478,-7.71554 -2.56405,-12.95151 -9.88433,-22.80637 -6.95818,-9.36739 -11.19103,-16.80625 -13.4047,-23.55758 -2.19249,-6.68676 -2.34494,-7.76335 -2.4942,-17.615072 -0.13329,-8.798997 0.0838,-13.279824 0.85622,-17.67323 0.21212,-1.206474 0.35457,-2.224696 0.31655,-2.262717 -0.038,-0.03802 -1.29101,0.672132 -2.7844,1.578118 -4.93174,2.99189 -8.19429,6.294578 -10.23509,10.361009 -1.85598,3.69816 -2.11946,5.02422 -2.10288,10.58333 0.0156,5.23451 0.12568,5.886992 2.25403,13.361452 0.93621,3.28784 1.11238,4.31414 1.23196,7.1768 0.17398,4.16531 -0.27856,6.43554 -1.94734,9.7691 -2.52787,5.04966 -9.12957,10.53963 -13.98827,11.63262 -1.87687,0.4222 -5.80899,0.35298 -7.65137,-0.13467 -3.97639,-1.05257 -7.06628,-3.66517 -9.02045,-7.62707 -1.93219,-3.91736 -2.8797,-8.64068 -3.56551,-17.77407 -0.43043,-5.73215 -0.58562,-7.00983 -0.83291,-6.857 -0.1258,0.0777 -0.22958,0.52128 -0.23064,0.98564 -0.006,2.60379 -3.06765,15.36025 -7.75957,32.32969 -4.65504,16.83608 -4.84766,17.84165 -4.58664,23.9448 0.32488,7.59624 2.11183,12.83885 6.78591,19.90878 5.05061,7.63947 15.41739,16.94926 25.14139,22.57795 5.30676,3.07182 7.30556,6.73749 5.90888,10.83652 -0.58417,1.71447 -2.46492,3.59521 -4.17939,4.17938 -1.66453,0.56716 -4.05745,0.5634 -5.49445,-0.009 -3.05087,-1.21452 -11.48927,-6.68584 -16.58129,-10.75105 -4.11362,-3.28412 -10.87973,-9.98257 -13.72976,-13.5925 -4.20549,-5.3268 -7.24691,-10.48993 -9.44399,-16.03226 -3.69232,-9.31413 -4.51729,-19.57906 -2.37155,-29.50861 0.35629,-1.64875 0.6478,-3.09489 0.6478,-3.2136 0,-0.11875 -1.10133,-0.99994 -2.4474,-1.95821 -9.58438,-6.82326 -16.27826,-16.47084 -18.28868,-26.35859 -1.00446,-4.94022 -1.18197,-12.81218 -0.42302,-18.759982 0.61104,-4.78866 2.90641,-12.21336 5.97347,-19.322016 0.78055,-1.809112 1.37952,-3.328963 1.33104,-3.377446 -0.15822,-0.158213 -4.22455,2.603937 -6.12145,4.158128 -2.4384,1.997856 -6.46167,6.185164 -8.6387,8.990904 -5.22364,6.73219 -9.05632,14.436432 -11.25731,22.628882 l -0.99329,3.69716 0.02,5.68854 c 0.0226,6.42419 -0.16715,5.59099 2.83514,12.44925 1.86814,4.26747 2.27517,5.81697 2.46369,9.37887 0.49019,9.26204 -3.85438,17.44644 -13.8726,26.13356 -4.89124,4.24135 -7.06766,5.60695 -10.41943,6.53759 -8.75577,2.43118 -16.8509,-1.61708 -18.24333,-9.12323 -0.18853,-1.01626 -0.24335,-3.5392 -0.15234,-7.01146 0.15966,-6.0924 0.36411,-7.29853 2.51386,-14.83034 2.03589,-7.13282 2.5311,-9.73238 2.34807,-12.32591 -0.44789,-6.34664 -4.49031,-11.67085 -11.54016,-15.19941 -1.13842,-0.56981 -2.13031,-1.036 -2.2042,-1.036 -0.0739,0 0.14798,0.699 0.49307,1.55337 1.37011,3.39203 1.54218,4.56374 1.53979,10.48517 -0.004,9.96347 -0.85981,12.691 -9.8375,31.35312 -7.66056,15.92416 -9.30757,19.80324 -10.63043,25.03697 -1.40567,5.56133 -1.69937,7.94223 -1.70933,13.85678 -0.01,5.84584 0.2694,8.08786 1.56533,12.56771 2.91687,10.08324 10.16151,17.36148 20.89674,20.99358 6.42918,2.17519 9.56817,2.8099 15.875,3.20997 4.40847,0.27964 16.00729,0.37423 16.00729,0.13055 0,-0.0769 -0.96284,-1.23084 -2.13965,-2.56426 -10.06676,-11.40648 -14.92972,-22.20159 -14.44528,-32.0666 0.26176,-5.33043 1.46827,-8.99996 4.43706,-13.49508 4.20211,-6.36251 10.99258,-11.45452 17.94386,-13.45565 2.96875,-0.85463 7.87391,-0.83359 10.55679,0.0453 4.60433,1.50836 9.19553,5.38046 11.27905,9.51246 2.21095,4.38473 2.31394,10.36288 0.26799,15.55671 -0.97812,2.48303 -3.24369,5.83848 -5.0773,7.51977 -1.97132,1.80756 -5.49071,4.10033 -7.75308,5.05087 -2.38251,1.00103 -5.15741,1.09109 -6.88862,0.2236 -3.44232,-1.72495 -4.97195,-5.24584 -3.80595,-8.76054 0.59278,-1.78684 2.89119,-4.1471 5.5142,-5.66264 2.40417,-1.38906 4.12442,-3.28644 4.16066,-4.58906 0.0458,-1.64489 -0.0685,-2.79609 -0.32518,-3.27565 -0.62994,-1.17705 -3.30952,-1.63878 -5.12015,-0.88223 -2.39359,1.0001 -6.36898,4.3837 -8.05285,6.85406 -3.86199,5.66587 -2.29892,12.92712 5.0047,23.24936 1.65792,2.34315 10.76611,11.94991 13.49949,14.23842 l 1.24929,1.04595 3.93655,-0.64683 c 5.81116,-0.95488 12.3942,-2.35132 19.54696,-4.14647 7.28045,-1.82718 9.09463,-1.99681 11.07959,-1.03589 1.51639,0.73406 3.40532,2.80471 3.81942,4.18687 1.07111,3.57505 -0.34778,7.06339 -3.65422,8.98382 -3.73587,2.16985 -26.07745,6.99844 -38.78563,8.38258 -7.78906,0.84836 -21.11799,1.2686 -29.74145,0.93774 z M 111.27859,182.2996 c 1.43113,-6.18535 4.12296,-12.86298 10.55901,-26.19375 5.59789,-11.5947 8.74226,-18.67688 8.72456,-19.65063 -0.003,-0.17896 -1.04505,-0.72892 -2.3151,-1.22213 -5.25373,-2.04015 -13.48105,-6.46788 -18.39055,-9.89727 -2.03585,-1.42209 -2.07214,-1.43516 -3.30729,-1.19073 -2.12981,0.42142 -6.37737,0.35496 -8.185451,-0.12809 -5.205283,-1.3907 -10.595104,-5.16826 -19.431317,-13.6189 -2.424126,-2.31834 -4.805376,-4.40392 -5.291667,-4.63463 -1.954482,-0.92722 -8.186131,-0.80993 -12.252051,0.23062 -4.064681,1.04023 -7.771008,3.70026 -9.082874,6.51878 -0.776257,1.66777 -0.78509,4.0005 -0.02187,5.77466 0.308962,0.71821 0.636588,1.30582 0.728059,1.30582 0.09147,0 0.448026,-0.53104 0.792345,-1.18009 0.851585,-1.60525 3.420107,-3.99648 5.119483,-4.76613 2.947947,-1.33511 6.167078,-1.45997 9.527651,-0.36957 9.170911,2.97569 19.49967,15.55277 24.098755,29.34449 1.010798,3.03117 1.779151,6.6657 3.24204,15.33589 1.175094,6.96449 2.339195,11.11464 4.211927,15.016 1.94829,4.05876 3.69409,6.50764 7.28049,10.21252 3.01395,3.11351 3.04445,3.13605 3.2275,2.38495 0.10163,-0.41703 0.44649,-1.88936 0.76635,-3.27181 z m 59.16016,-22.99761 c 2.39049,-1.67878 6.08767,-5.18276 7.65745,-7.25728 0.67729,-0.89509 1.66027,-2.52037 2.1844,-3.61177 0.87666,-1.82547 0.95297,-2.17506 0.95297,-4.36563 -10e-6,-2.37487 -0.005,-2.3908 -1.68356,-5.95312 -0.92596,-1.96454 -2.05655,-4.40532 -2.51244,-5.42396 l -0.82887,-1.85209 0.005,-9.3927 c 0.006,-10.71396 0.0235,-10.84043 2.57283,-18.25625 3.19651,-9.298532 7.22175,-16.756392 12.81245,-23.738554 2.18065,-2.723399 8.49031,-9.224216 10.90179,-11.232073 l 1.42123,-1.183362 -0.72419,-2.097484 c -1.81649,-5.261121 -1.90354,-11.191833 -0.24921,-16.978297 0.79768,-2.790129 2.3661,-6.167749 3.83917,-8.267752 l 1.08204,-1.542553 -0.31157,-2.074233 c -0.60007,-3.994951 -2.57163,-8.874418 -4.57161,-11.314387 l -0.634,-0.773486 -0.18028,1.759667 c -0.24933,2.433537 -1.02823,4.838568 -2.67317,8.253971 -3.59593,7.466285 -7.4987,11.129822 -14.04098,13.180279 -2.84112,0.890455 -5.70879,1.258652 -7.50596,0.963734 -3.15511,-0.517757 -6.98493,-2.944809 -10.43655,-6.613905 -3.43233,-3.648589 -4.84574,-6.575756 -5.11715,-10.597608 -0.1976,-2.928109 0.15827,-5.309086 1.91426,-12.8075 1.82323,-7.785509 2.23666,-10.4031618 2.23569,-14.1552068 -10e-4,-4.637897 -1.02489,-8.198652 -3.87932,-13.4937498 -1.12614,-2.0890354 -3.64914,-5.9667054 -4.03899,-6.2076514 -0.0938,-0.05799 0.0533,0.92805 0.32698,2.191208 0.67789,3.128886 0.7329,10.6910582 0.0981,13.4847082 -2.14163,9.424731 -7.73325,16.3059318 -31.18047,38.3715748 -7.55702,7.111738 -10.90181,10.583283 -12.98641,13.478544 -1.79265,2.489764 -4.58194,7.76378 -5.86505,11.089677 -1.60376,4.157035 -1.77431,5.660348 -1.92468,16.964067 -0.19778,14.86838 0.28056,19.47004 2.45381,23.605732 0.89775,1.70844 1.04648,1.85501 2.30707,2.27371 2.25849,0.75015 4.02749,2.88381 4.82076,5.81451 0.13314,0.49189 4.61358,3.4067 8.46018,5.50389 2.0353,1.10964 3.79566,2.01753 3.91192,2.01753 0.63833,0 -1.37157,-2.62721 -5.13625,-6.71378 -1.62548,-1.76445 -3.35271,-3.80643 -3.83828,-4.53772 -1.97666,-2.97693 -1.68497,-6.76102 0.70543,-9.151422 1.78385,-1.78385 2.66236,-2.16484 5.28686,-2.29279 3.804,-0.18545 12.86642,1.49296 19.29003,3.57262 l 3.01816,0.977132 2.92,-3.031712 c 2.65258,-2.75406 7.65409,-8.7345 7.46385,-8.92473 -0.043,-0.043 -1.10917,0.22067 -2.36935,0.58586 -6.10067,1.7679 -10.14626,1.46629 -14.07931,-1.04965 -4.21627,-2.69712 -6.42642,-6.963541 -6.65947,-12.85533 -0.36363,-9.192887 4.44884,-17.453512 12.70627,-21.81035 7.50298,-3.958772 14.44468,-2.956099 20.38336,2.944212 3.77329,3.74891 8.44202,11.470669 9.5852,15.853283 2.44214,9.362402 -2.34894,20.699945 -14.14935,33.482807 l -2.33238,2.52656 2.09117,2.04091 c 6.33427,6.18208 9.5261,13.56424 9.5737,22.14243 0.0267,4.8155 -0.59562,8.22476 -3.11243,17.0502 -1.13302,3.97306 -2.2607,9.06865 -2.2607,10.21532 0,0.28364 0.10039,0.51573 0.22309,0.51573 0.1227,0 1.05724,-0.58579 2.07676,-1.30178 z m 67.50979,-35.67374 c 3.45634,-12.83354 4.51882,-18.11211 4.72642,-23.48177 0.16733,-4.328172 -0.0797,-5.851262 -1.39419,-8.594032 -1.43657,-2.99761 -2.92568,-4.94369 -4.39462,-5.74318 -1.88445,-1.02565 -3.15751,-2.866211 -3.52944,-5.102774 l -0.19684,-1.183735 -1.03028,2.047631 c -2.65304,5.272778 -4.9916,11.961008 -6.10881,17.471038 -0.51258,2.528032 -0.59702,3.744182 -0.5819,8.381092 0.0154,4.73453 0.0916,5.69301 0.59952,7.54063 1.20975,4.40099 3.65471,8.44592 7.47063,12.35942 1.24684,1.27871 2.39106,2.32495 2.54269,2.32495 0.15164,0 1.0052,-2.70867 1.89682,-6.01927 z m 98.03756,2.96172 c 0.32247,-0.84032 3.71935,-5.79694 5.4915,-8.01301 2.7717,-3.46602 7.07824,-7.69732 11.26726,-11.07038 2.06978,-1.66662 4.49508,-3.82585 5.38951,-4.79829 2.42694,-2.63856 4.9962,-6.613432 5.66227,-8.760022 l 0.1992,-0.64195 -0.89254,0.59386 c -3.23551,2.15284 -7.73015,3.71801 -10.70592,3.72817 -1.58504,0.005 -4.92958,-0.80292 -6.37662,-1.54114 -5.73532,-2.92595 -9.1463,-9.41699 -8.29804,-15.79116 0.15994,-1.201861 0.58597,-3.053064 0.94676,-4.113781 1.97506,-5.806956 6.57071,-12.734366 10.34721,-15.597237 0.85384,-0.647261 2.13482,-1.654784 2.84663,-2.238944 1.48593,-1.219441 5.22885,-5.361596 6.13558,-6.790002 l 0.6128,-0.965398 -0.51339,-5.913768 c -0.56373,-6.493113 -0.6513,-11.785992 -0.24231,-14.645021 0.26398,-1.845318 1.36221,-6.689516 1.73384,-7.647736 0.19219,-0.495594 0.18114,-0.495594 -0.66463,0 -1.24116,0.727281 -3.048,2.741636 -3.81259,4.250465 -0.99817,1.96982 -1.35742,3.47526 -2.95746,12.393104 -1.64667,9.177658 -2.19938,11.699655 -3.20882,14.641724 -2.77968,8.10165 -9.35453,15.728005 -15.08551,17.498118 -0.9548,0.29491 -2.14019,0.536199 -2.63416,0.536199 -0.49401,0 -0.89818,0.108448 -0.89818,0.240996 0,0.41616 -4.83053,7.497857 -6.52214,9.561615 -0.88871,1.084242 -2.12228,2.437226 -2.74127,3.006626 l -1.12543,1.03528 0.14851,5.97618 c 0.15915,6.4037 0.53139,8.933122 1.93521,13.150542 0.87773,2.63686 3.56585,7.94774 5.67611,11.21418 2.14424,3.31906 7.71829,11.1125 7.94792,11.1125 0.0994,0 0.25181,-0.18526 0.3387,-0.41172 z m -58.63279,-6.44612 c 0.72155,-0.57037 1.58197,-1.47397 1.91203,-2.00803 0.5329,-0.86225 0.583,-1.19798 0.4474,-2.99786 -0.0841,-1.1162 -0.63699,-3.75063 -1.23055,-5.86336 -1.57778,-5.61594 -2.16421,-9.23008 -2.32226,-14.312022 l -0.13654,-4.39014 -1.35631,-0.33899 c -0.74596,-0.18644 -2.54091,-0.73704 -3.98878,-1.22355 -1.44786,-0.48652 -2.66307,-0.85398 -2.70047,-0.81658 -0.0374,0.0374 0.53138,1.23044 1.26396,2.65121 2.80619,5.44235 3.73069,9.491502 4.6006,20.149872 0.58759,7.19933 1.12601,10.18645 1.83608,10.18645 0.1996,0 0.95328,-0.46664 1.67484,-1.037 z m 4.35487,-46.408709 c 4.17732,-6.277086 11.54436,-12.328784 20.75563,-17.049847 8.26643,-4.236794 13.63721,-5.907339 16.42319,-5.108326 0.47199,0.135363 0.85815,0.159014 0.85815,0.05256 0,-0.482849 -3.26366,-5.627796 -7.38243,-11.637946 -8.75882,-12.78097 -11.02839,-16.568235 -12.23914,-20.423777 -0.53389,-1.700123 -0.61905,-2.517315 -0.61905,-5.940073 0,-4.7781018 0.25039,-5.8502628 2.78061,-11.9062488 3.61786,-8.659191 4.4985,-11.62653 4.4922,-15.1362402 -0.003,-1.454748 -0.17264,-2.185091 -0.89249,-3.833842 -1.16239,-2.662354 -3.39341,-5.972934 -5.58132,-8.282 -1.57976,-1.667239 -1.73782,-1.772866 -1.58374,-1.058335 0.43521,2.018248 0.43677,7.271555 0.003,9.444763 -1.19121,5.965293 -4.79246,12.2908452 -10.81555,18.9973922 -4.10976,4.576106 -4.14792,4.64425 -4.13174,7.379663 0.007,1.2529998 0.11712,3.5878688 0.2438,5.1885978 0.31069,3.925673 -0.27196,6.420048 -2.18365,9.348462 -4.98589,7.637615 -14.04123,12.26979 -21.09237,10.789594 -5.24589,-1.10123 -9.61665,-4.616963 -12.25636,-9.858724 -1.88309,-3.739332 -2.10496,-6.091423 -1.32585,-14.055423 l 0.44707,-4.5698408 -2.27993,-4.425992 c -3.90967,-7.589766 -5.87162,-13.4488172 -6.19992,-18.5150542 -0.0872,-1.346067 -0.2304,-2.444747 -0.31816,-2.441511 -0.85241,0.03143 -2.7989,2.807787 -3.50455,4.998675 -0.81076,2.517254 -0.9402,9.1791222 -0.36543,18.8079392 0.81717,13.6897368 0.54805,17.9774768 -1.49129,23.7595268 -1.80864,5.127956 -3.74937,8.172172 -8.97357,14.075889 -0.96578,1.091406 -2.18605,2.665431 -2.7117,3.497831 -0.52564,0.8324 -1.38043,1.7849 -1.89952,2.116667 -0.66739,0.426545 -1.23163,1.180626 -1.92657,2.574761 -0.97274,1.951431 -0.98277,2.004531 -0.98277,5.203631 0,1.777646 0.0841,3.316089 0.18684,3.418766 0.10277,0.102674 1.29339,-0.126428 2.64584,-0.509116 4.39118,-1.242531 9.72304,-2.028791 13.94561,-2.056485 1.7219,-0.0113 2.36394,0.112533 3.70571,0.714679 2.75807,1.23775 4.06978,3.234801 4.0882,6.224201 0.0122,1.989519 -0.44285,3.090958 -2.87607,6.960693 -1.27904,2.034151 -1.39569,2.323417 -0.87087,2.159582 2.95063,-0.92111 5.24178,-0.73764 9.91815,0.794224 1.53653,0.503332 2.82122,0.915148 2.85485,0.915148 0.0336,0 -0.33102,-0.982265 -0.81036,-2.182812 -1.36831,-3.427069 -1.78911,-6.036194 -1.62872,-10.098775 0.17963,-4.549892 0.9947,-7.746738 2.99149,-11.733096 1.80164,-3.596772 4.09944,-6.215629 7.35316,-8.380584 2.61045,-1.736932 3.93262,-2.32373 6.67455,-2.962265 2.76113,-0.643003 8.23342,-0.644223 10.69141,-0.0024 4.80802,1.255493 9.22384,4.552916 11.7785,8.795353 1.46003,2.424629 1.82654,4.002802 1.80661,7.779144 -0.0202,3.831098 -0.55589,6.24241 -2.04248,9.194377 -1.89911,3.771135 -6.58534,9.055872 -8.98162,10.128718 l -1.07208,0.479983 0.90918,0.261056 c 1.80321,0.517766 1.9255,0.45135 3.48575,-1.893181 z m -128.05915,0.844238 c 3.27704,-1.107646 5.89822,-1.283761 7.80915,-0.524687 0.76398,0.303474 1.38906,0.495369 1.38906,0.426426 0,-0.294817 -2.99656,-4.889891 -4.09735,-6.283076 -1.3412,-1.697458 -1.71519,-1.806297 -3.34672,-0.973958 -2.36801,1.208072 -4.60953,4.33764 -4.90725,6.851433 -0.19333,1.632376 -0.18812,1.633207 3.15311,0.503862 z M 92.197326,70.261943 c 0.871519,-8.293055 4.202198,-17.744093 8.676304,-24.61963 3.7202,-5.716973 8.98117,-11.357363 20.30174,-21.765883 3.4925,-3.211127 8.19546,-7.698375 10.45104,-9.971667 l 4.10104,-4.1332568 -0.64262,-0.489955 c -0.83753,-0.638567 -3.86103,-1.660957 -7.82405,-2.645683 -1.74625,-0.433906 -3.69598,-0.973008 -4.33274,-1.198007 -1.69102,-0.597522 -1.80397,-0.549918 -2.01146,0.847683 -0.37574,2.531049 -1.72031,6.0993328 -3.04405,8.0784958 -1.64331,2.456952 -5.10826,5.793036 -7.68062,7.394971 -3.03357,1.889155 -5.2179,2.627477 -8.23769,2.784407 -3.245379,0.168653 -5.521422,-0.454345 -7.800556,-2.135167 -2.681121,-1.977281 -3.916352,-3.667254 -7.868235,-10.764895 -2.001763,-3.5951978 -3.683167,-5.8208328 -4.39747,-5.8208328 -0.09526,0 -0.07058,0.803672 0.05485,1.785938 0.358561,2.8079768 0.34512,11.8663498 -0.02072,13.9567698 -0.178268,1.018645 -1.031346,4.769114 -1.895734,8.334374 -0.864386,3.565261 -1.690473,7.315729 -1.835748,8.334375 -0.347104,2.43382 -0.347567,12.650872 -7.94e-4,16.921686 0.609762,7.509166 1.548202,9.705218 6.053913,14.166855 2.133896,2.113021 3.718311,3.421965 5.185521,4.283953 l 2.112753,1.241243 0.175422,-0.844368 c 0.09648,-0.464404 0.312422,-2.148035 0.479869,-3.741406 z M 267.7012,69.327736 c -0.24316,-2.900373 0.62326,-4.726501 4.05505,-8.546753 2.05811,-2.291067 2.74515,-3.521945 2.74515,-4.91807 0,-0.982006 -0.0744,-1.081304 -1.22989,-1.640652 -1.37749,-0.666829 -3.28011,-0.930637 -4.73858,-0.657026 -1.37375,0.257717 -3.2962,2.14689 -4.33783,4.262725 -0.81382,1.65312 -0.84968,1.860048 -0.84538,4.879422 0.005,3.877757 0.34989,4.788144 2.62741,6.945868 0.88321,0.836745 1.66727,1.521354 1.74236,1.521354 0.0751,0 0.0669,-0.83109 -0.0183,-1.846868 z M 182.18869,32.393145 c 1.14566,-0.58228 2.25797,-2.076532 3.67334,-4.934707 l 1.34605,-2.718207 0.14944,-3.439584 c 0.0822,-1.89177 0.0293,-4.366863 -0.1175,-5.500208 -0.23277,-1.79691 -0.40308,-2.237102 -1.33074,-3.439583 -2.37507,-3.0786968 -2.86927,-6.1089378 -1.44915,-8.8857558 1.32911,-2.598867 3.68264,-3.89142 6.90265,-3.790926 2.05851,0.06424 4.12821,0.748348 7.80248,2.578973 8.36821,4.169275 14.86749,10.4873208 19.01944,18.4890848 l 1.23017,2.370818 0.31092,-1.043493 c 0.47603,-1.597607 0.63448,-9.239581 0.29833,-14.3877708 -0.16566,-2.537169 -0.35212,-4.663945 -0.41435,-4.72617 -0.0622,-0.06223 -0.74464,0.0467 -1.51648,0.242051 -0.85909,0.21744 -2.94252,0.357267 -5.37209,0.360545 -3.82193,0.0052 -4.0299,-0.02289 -5.62173,-0.758084 -1.9672,-0.90856 -3.54666,-2.519095 -4.48889,-4.577194 -0.85726,-1.872509 -1.50083,-5.737137 -2.05363,-12.3321252 -0.3954,-4.717155 -0.82289,-7.176187 -1.39465,-8.022431 -0.10969,-0.162351 -0.6918,-0.544761 -1.29359,-0.849799 -0.60178,-0.305038 -1.52218,-1.065173 -2.04534,-1.689187 l -0.95119,-1.134576 -0.008,1.058333 c -0.0316,4.016939 -3.68469,10.41436 -7.72666,13.531109 -1.81459,1.3992171 -2.78177,3.1973439 -3.80147,7.0674542 -0.37778,1.433793 -0.89986,3.103777 -1.16018,3.711078 -0.37102,0.865563 -0.50326,2.103289 -0.61193,5.727477 -0.15763,5.2575038 -0.52481,7.5109388 -2.71524,16.6639178 -0.79699,3.330289 -1.44907,6.504461 -1.44907,7.053718 0,0.860446 0.20934,1.210199 1.51267,2.527268 1.59062,1.607394 1.71777,1.640297 3.2767,0.847974 z m 35.37169,-44.801122 c 1.58518,-0.812927 2.08418,-1.561544 2.66258,-3.994499 0.99755,-4.196056 2.84007,-7.876619 5.53144,-11.049432 1.35547,-1.597948 1.39623,-1.691814 1.14888,-2.645833 -0.34159,-1.317559 -1.51497,-8.91192 -2.00479,-12.975418 -0.87056,-7.222212 -0.76081,-15.524717 0.27164,-20.548639 0.64933,-3.15968 2.51946,-5.247235 5.41924,-6.04928 1.88377,-0.52103 4.21098,-0.823198 12.55891,-1.630661 17.74306,-1.716217 24.98772,-3.583988 29.06299,-7.492825 2.56743,-2.462586 8.09638,-10.564535 9.15176,-13.410708 1.49571,-4.033673 0.67516,-8.865408 -2.54961,-15.013188 -1.6545,-3.15417 -3.89323,-4.52226 -7.94152,-4.85304 -2.1775,-0.17792 -5.87483,0.31548 -7.87987,1.05155 l -1.05833,0.38852 1.06889,0.0187 c 0.58789,0.0102 1.7696,0.20115 2.62602,0.42422 5.94735,1.54909 9.91071,7.31684 10.38285,15.109816 0.19034,3.141768 -0.42866,5.311926 -2.25687,7.912364 -1.48381,2.110571 -4.33363,4.889349 -6.57577,6.411852 -1.9527,1.325962 -7.74014,4.241271 -9.47846,4.774589 -1.14397,0.350972 -5.15237,0.420454 -29.63333,0.513662 -27.69945,0.10546 -46.24705,-0.168736 -51.04179,-0.754573 -3.68192,-0.449872 -5.93336,-1.994662 -6.89997,-4.734314 -0.23943,-0.678633 -0.39297,-2.133084 -0.40052,-3.794213 -0.007,-1.481547 -0.0997,-3.165239 -0.20651,-3.741536 l -0.19427,-1.047813 -0.96561,1.312396 c -1.17788,1.600896 -4.5876,4.923751 -6.58586,6.41808 -0.80939,0.605272 -2.41673,1.540203 -3.57188,2.077625 -2.60734,1.213048 -5.43778,1.487493 -7.91473,0.767424 -4.47499,-1.300914 -8.1735,-4.086609 -9.80291,-7.383484 -0.93986,-1.901684 -1.6866,-5.052597 -1.70203,-7.181831 -0.0281,-3.870835 1.58269,-9.611164 4.34319,-15.478124 1.47116,-3.12668 2.30009,-5.84378 1.7724,-5.80962 -0.0953,0.006 -0.53045,0.73825 -0.96701,1.62684 -0.43656,0.88859 -2.31365,4.30659 -4.17131,7.59556 -4.20869,7.45145 -7.067,13.203328 -8.09938,16.298677 -2.09848,6.29185 -1.51884,11.552539 1.60893,14.602084 1.48297,1.445882 3.81347,2.827766 5.99101,3.552407 1.70475,0.567304 1.94987,0.57676 10.4842,0.404395 4.80625,-0.09707 14.21551,-0.367298 20.90947,-0.600504 6.69396,-0.233206 17.17146,-0.440182 23.28333,-0.459946 l 11.1125,-0.03594 1.48418,0.728874 c 1.82422,0.895871 4.01327,3.155156 4.86891,5.025115 1.30887,2.860505 1.57843,4.665892 1.57044,10.517885 -0.008,5.959269 -0.44343,9.689473 -2.10752,18.060697 l -0.88155,4.434654 0.93442,1.386179 c 2.81673,4.17854 4.00392,8.275289 4.63005,15.977455 0.33994,4.181726 0.32608,4.159041 2.01317,3.293848 z m -38.55977,-12.175796 c 0.95238,-1.428449 0.95817,-1.817145 0.0969,-6.503078 -0.88833,-4.832898 -0.946,-9.095243 -0.16648,-12.303125 1.30238,-5.359551 3.58244,-10.148901 5.79369,-12.169859 l 1.44476,-1.320427 -1.93766,0.132096 c -1.9155,0.130582 -11.99848,0.483925 -23.45413,0.821914 l -5.90605,0.174255 1.04651,1.087781 c 1.86258,1.936044 2.11445,2.936431 2.40345,9.546262 0.28546,6.528528 0.18255,6.316088 6.34536,13.099108 3.39667,3.738504 6.03298,7.045797 8.18691,10.270641 l 1.46602,2.194899 1.95041,-1.930315 c 1.07272,-1.061673 2.30138,-2.456741 2.73036,-3.100152 z m 18.90051,-29.587974 0.19354,-2.976562 h -2.27788 c -1.25283,0 -2.27787,0.07429 -2.27787,0.165081 0,0.09079 0.52579,0.627902 1.16842,1.193573 1.60796,1.415375 2.52735,3.340229 2.56686,5.374023 l 0.0311,1.601698 0.20114,-1.190625 c 0.11063,-0.654844 0.28823,-2.530078 0.39467,-4.167188 z M 157.79249,-99.99704 c 0.40263,-1.8774 0.36682,-2.66783 -0.14656,-3.23511 -0.41912,-0.46312 -0.46188,-0.43436 -0.95249,0.64063 -0.92142,2.0189 -2.25102,5.60246 -2.43005,6.549462 l -0.17505,0.926042 1.70594,-1.759146 c 1.42369,-1.468086 1.75431,-1.984619 1.99821,-3.121878 z m 157.58704,304.22549 c -0.58209,-0.13366 -2.9038,-0.85532 -5.15938,-1.60369 -20.1754,-6.6939 -31.54384,-16.15125 -35.08701,-29.1887 -0.65136,-2.39675 -0.71999,-3.08173 -0.72899,-7.27604 -0.008,-3.81259 0.0933,-5.10622 0.57452,-7.32589 2.25566,-10.40397 7.43427,-17.45504 14.32128,-19.49958 2.10145,-0.62383 5.86077,-0.56467 8.12619,0.1279 4.61445,1.41073 8.28983,4.62381 10.91971,9.54622 1.31841,2.46771 2.03266,4.82809 2.66768,8.81605 1.02381,6.42911 0.93814,11.20238 -0.26604,14.82238 -1.98297,5.96141 -7.58369,8.55104 -12.8677,5.94974 -1.78107,-0.87681 -5.41177,-3.60265 -5.88737,-4.42011 -0.15236,-0.26185 -0.27761,-0.35702 -0.27834,-0.2115 -0.002,0.43809 2.43054,3.22164 3.96891,4.54123 4.32728,3.71186 13.92412,8.44618 21.41633,10.56515 3.47366,0.98243 4.69331,1.60065 6.15447,3.11965 2.82506,2.93685 2.73048,7.132 -0.22836,10.12865 -1.95794,1.983 -4.52784,2.62448 -7.6459,1.90854 z m -24.27178,-40.05312 c 1.04303,-1.39544 3.28721,-2.77781 4.50956,-2.77781 0.62838,0 0.64252,-0.042 0.46486,-1.38131 -0.27233,-2.0529 -1.15858,-4.47564 -1.93784,-5.29738 -0.62142,-0.65532 -0.73091,-0.68678 -1.13077,-0.32491 -0.62309,0.56388 -1.76824,2.73598 -2.39612,4.54491 -0.8748,2.52028 -1.30075,5.00284 -1.27602,7.43693 l 0.0234,2.2978 0.37718,-1.58782 c 0.23724,-0.99867 0.744,-2.07856 1.36578,-2.91041 z m 61.99631,-205.215123 c -2.62478,-1.311625 -4.04204,-3.598789 -4.07953,-6.583516 -0.0288,-2.296716 0.78213,-4.120203 2.53227,-5.693712 2.86128,-2.572551 6.9736,-2.612752 9.83266,-0.09613 4.07347,3.585636 3.36447,9.871718 -1.39113,12.333536 -2.33722,1.209911 -4.52739,1.222558 -6.89427,0.03982 z m 4.71466,-0.51715 c 1.71532,-0.367868 3.24546,-1.494732 4.16859,-3.069931 0.61997,-1.057929 0.73792,-1.559446 0.73792,-3.137511 0,-1.66846 -0.0962,-2.028251 -0.86127,-3.220479 -0.47368,-0.738196 -1.36334,-1.680218 -1.97702,-2.093384 -1.00819,-0.678796 -1.33255,-0.75121 -3.3647,-0.75121 -2.03216,0 -2.35652,0.07241 -3.36471,0.75121 -0.61367,0.413166 -1.50334,1.355188 -1.97702,2.093384 -0.76507,1.192228 -0.86127,1.552019 -0.86127,3.220479 0,1.570776 0.11888,2.081175 0.72615,3.117389 0.89858,1.533303 2.22221,2.568483 3.84188,3.004595 1.57102,0.423024 1.383,0.417542 2.93145,0.08546 z m -1.64375,-5.708075 c -0.37452,-0.374523 -0.16259,-0.887458 0.36666,-0.887458 0.36989,0 0.5207,0.143682 0.46302,0.441095 -0.0944,0.48696 -0.5461,0.729948 -0.82968,0.446363 z"
       style="fill:#000000;stroke-width:0.26458332" />
  </g>
</svg>
