<?xml version="1.0" encoding="UTF-8" standalone="no"?>
<svg
   xmlns:dc="http://purl.org/dc/elements/1.1/"
   xmlns:cc="http://creativecommons.org/ns#"
   xmlns:rdf="http://www.w3.org/1999/02/22-rdf-syntax-ns#"
   xmlns:svg="http://www.w3.org/2000/svg"
   xmlns="http://www.w3.org/2000/svg"
   id="svg5991"
   version="1.1"
   viewBox="0 0 420 497"
   height="497mm"
   width="420mm">
  <defs
     id="defs5985" />
  <metadata
     id="metadata5988">
    <rdf:RDF>
      <cc:Work
         rdf:about="">
        <dc:format>image/svg+xml</dc:format>
        <dc:type
           rdf:resource="http://purl.org/dc/dcmitype/StillImage" />
        <dc:title></dc:title>
      </cc:Work>
    </rdf:RDF>
  </metadata>
  <g
     transform="translate(0,200)"
     id="layer1">
    <path
       id="path6258"
       d="m 164.61183,248.29207 c -9.27645,-0.45688 -18.81647,-2.6498 -26.57744,-6.1092 -7.84625,-3.49742 -14.47969,-8.92879 -18.70731,-15.31731 -3.83282,-5.79191 -6.56138,-13.80516 -7.34432,-21.5688 -0.14655,-1.45328 -0.36901,-2.6765 -0.49436,-2.71828 -0.68813,-0.22937 -6.29613,-3.75788 -7.99532,-5.03058 -6.504573,-4.87193 -12.363374,-12.28061 -15.790482,-19.96765 -2.590644,-5.81086 -3.508976,-9.29664 -4.989613,-18.93956 -0.500526,-3.25978 -1.146725,-6.92338 -1.435997,-8.14136 -1.753007,-7.38111 -6.553726,-16.1779 -11.534333,-21.13537 -2.152425,-2.14241 -4.692679,-3.82852 -5.005476,-3.32243 -0.09096,0.14719 -0.284642,2.50137 -0.430404,5.23153 -0.238409,4.46545 -0.332635,5.10477 -0.938334,6.36648 -0.988928,2.06 -2.2713,2.83078 -4.709709,2.83078 -1.72848,0 -2.021192,-0.0866 -3.722385,-1.1008 -4.101011,-2.44499 -9.701869,-7.79931 -12.455577,-11.90731 -3.935332,-5.87076 -4.808073,-12.21382 -2.594606,-18.85757 2.180285,-6.54416 8.072713,-11.939997 15.894869,-14.555307 4.31167,-1.4416 8.194961,-1.94115 13.977677,-1.7981 4.237257,0.10482 5.318072,0.2169 6.879167,0.71335 3.828041,1.2174 6.109663,2.87214 12.856479,9.324137 4.011168,3.83589 8.188373,7.43536 8.392218,7.23152 0.04721,-0.0472 -0.206264,-0.66323 -0.563279,-1.36892 -1.421421,-2.80966 -2.535756,-7.74638 -3.22062,-14.267937 -0.226208,-2.15407 -0.438327,-3.92819 -0.471376,-3.94249 -0.03305,-0.0143 -0.774464,-0.30838 -1.647589,-0.653501 C 89.947564,88.482558 85.035661,86.050437 82.987876,84.833118 75.3365,80.284706 69.129309,73.280198 66.993161,66.783871 65.690874,62.823431 64.759008,54.014108 64.754113,45.617204 c -0.004,-6.917052 0.11188,-7.743189 2.608462,-18.591008 1.973823,-8.576402 2.116558,-9.504399 2.105374,-13.688157 -0.0071,-2.665828 -0.145399,-4.3839078 -0.453152,-5.6305898 -1.14141,-4.623742 -3.539942,-8.9294412 -5.71406,-10.2575331 -2.054191,-1.254834 -2.724755,-1.8951363 -3.265923,-3.1185352 -0.986798,-2.2308211 -0.0039,-5.3114329 2.149383,-6.7363839 2.444223,-1.617511 4.690486,-1.5471 11.432725,0.358363 9.960213,2.8149143 16.745604,6.7340125 20.666435,11.9365012 0.803643,1.066342 2.746616,4.111694 4.317719,6.767449 1.868284,3.158104 3.007654,4.8286448 3.293314,4.8286448 0.79821,0 2.88361,-1.5423768 3.82695,-2.8304538 1.25166,-1.709047 2.14185,-3.999907 2.78978,-7.179307 0.71868,-3.526631 0.68407,-4.187158 -0.39678,-7.5733192 -1.32516,-4.151505 -1.42044,-5.339431 -0.56795,-7.080448 0.8978,-1.833549 2.40235,-2.853137 4.21024,-2.853137 2.18705,0 2.78832,0.370721 8.4052,5.182336 2.57703,2.2075687 5.66125,3.5872676 11.13953,4.9831589 6.91595,1.7622176 9.73219,2.9432117 12.48991,5.2376651 0.69969,0.5821442 1.3148,1.0157542 1.36691,0.9635782 0.0521,-0.05218 0.35797,-0.749708 0.67966,-1.5500721 0.4027,-1.0018977 0.62579,-2.2405446 0.71617,-3.9762826 0.16288,-3.128346 -0.31494,-5.7119885 -2.10267,-11.3695495 -1.64213,-5.196778 -3.23835,-11.313883 -3.79727,-14.552084 -0.61931,-3.588057 -0.56326,-8.549854 0.12703,-11.244792 0.99787,-3.895807 4.16959,-9.357484 6.43124,-11.074553 3.70224,-2.810774 8.06468,-1.251471 8.77649,3.137053 0.0944,0.582084 0.27887,3.141927 0.40992,5.688542 0.13104,2.546615 0.36959,5.070438 0.5301,5.608494 0.44599,1.495018 1.9586,3.559816 5.33101,7.277177 5.587,6.15846 7.71297,8.888598 10.32662,13.261243 0.75475,1.262687 1.42204,2.355109 1.48287,2.427602 0.0608,0.07249 0.3665,-0.225163 0.67926,-0.661458 0.31276,-0.436295 1.59234,-1.873253 2.84352,-3.193238 3.03053,-3.197207 4.01047,-4.655133 4.15184,-6.176982 0.0619,-0.666946 -0.18561,-2.939036 -0.55014,-5.049088 -0.86927,-5.031719 -1.031,-7.234328 -0.70337,-9.579208 0.61032,-4.368054 3.26759,-11.049243 5.17421,-13.009499 1.99492,-2.051052 4.29764,-2.517835 6.64655,-1.347324 2.04215,1.017648 2.76471,2.242973 3.00259,5.091851 0.20058,2.402223 0.92038,4.580056 2.28125,6.902211 0.68992,1.177256 0.71747,1.19402 0.91789,0.558554 0.38181,-1.210556 1.2772,-9.176668 1.45861,-12.977026 l 0.17975,-3.765346 -6.32651,0.182567 c -3.47958,0.100412 -11.02948,0.357273 -16.77755,0.570799 -15.63392,0.580763 -38.48525,0.948582 -39.85541,0.641522 -1.57392,-0.352721 -6.75592,-2.827956 -9.114,-4.353393 -2.77712,-1.796508 -4.29887,-3.152457 -5.92562,-5.279993 -2.97297,-3.8882 -4.33207,-7.953415 -4.56085,-13.641964 -0.36942,-9.18559 1.80561,-15.539804 10.09811,-29.501051 6.50969,-10.95969 8.3401,-16.3351 8.01222,-23.52972 -0.16247,-3.56513 -0.5792,-4.81256 -2.33107,-6.97766 -1.67507,-2.07019 -2.34767,-3.54207 -2.35507,-5.15372 -0.008,-1.64451 0.48552,-2.78001 1.65187,-3.80408 1.87114,-1.64288 4.36094,-1.79375 6.88958,-0.4175 4.38664,2.38751 13.9529,17.20968 16.81123,26.04768 1.38899,4.29479 1.72446,6.56479 1.56228,10.57145 -0.14998,3.7051 -0.41249,4.61263 -3.04871,10.53961 -1.91256,4.299984 -2.65255,6.614921 -2.87311,8.988064 -0.15345,1.651019 -0.12128,1.81274 0.43859,2.20489 0.57283,0.401227 0.66562,0.379224 1.78799,-0.42395 1.69142,-1.2104 4.42011,-4.236389 5.11547,-5.67282 0.83918,-1.733518 0.88763,-5.291294 0.0844,-6.198664 -1.24298,-1.40414 -1.54267,-2.16802 -1.54479,-3.93753 -0.002,-2.00272 0.54477,-3.11894 2.2403,-4.57026 1.87218,-1.60251 4.177,-1.92321 6.09319,-0.84782 0.64135,0.35994 1.99953,1.08822 3.01818,1.6184 8.00263,4.16518 12.28224,11.16808 13.48671,22.068848 l 0.16079,1.455208 35.88524,-0.08544 35.88524,-0.08544 1.8733,-0.941615 c 2.39892,-1.205817 3.96681,-2.259057 5.39084,-3.621323 1.06791,-1.021593 1.12576,-1.150694 0.96146,-2.145339 -0.36063,-2.183133 -0.35122,-2.181757 -3.47207,-0.507752 -2.5292,1.356646 -2.95339,1.500746 -4.41599,1.500124 -1.92423,-7.93e-4 -2.95455,-0.412496 -5.13555,-2.051989 -4.74208,-3.564682 -7.18904,-8.347192 -6.44167,-12.590072 0.58947,-3.34651 2.54899,-6.39715 5.8369,-9.08709 11.79543,-9.65022 31.19982,-9.09226 38.90651,1.11871 2.48599,3.29381 4.96667,8.98254 6.12379,14.04317 0.68611,3.00064 0.93812,8.399999 0.51461,11.025362 -0.79983,4.958106 -3.23952,9.773279 -8.42442,16.627122 -4.28189,5.66017 -7.82413,8.718685 -12.94301,11.175505 -6.39614,3.069849 -13.32679,4.49998 -28.65414,5.912739 -3.27422,0.301792 -6.23907,0.612473 -6.58856,0.690406 l -0.63543,0.141693 0.16799,6.665618 c 0.0924,3.666091 0.33948,7.975306 0.54907,9.576036 0.37305,2.849186 0.96572,6.552771 1.06855,6.677379 0.0285,0.03454 0.69825,-0.164036 1.48833,-0.441275 4.14132,-1.453195 10.23487,-2.492951 13.82201,-2.358488 1.94302,0.07283 2.69644,0.223946 3.75232,0.752592 1.83976,0.921104 2.84324,2.424213 2.99208,4.481811 0.20439,2.825745 -1.23489,4.779423 -4.96508,6.73958 -2.22951,1.171578 -3.55585,2.603347 -4.09572,4.42128 -1.07334,3.614326 -0.0264,7.155041 5.19257,17.5615578 3.70596,7.3895714 3.91808,8.6892974 2.59416,15.8952612 -0.86456,4.705715 -0.63508,6.06679 1.3744,8.151592 1.13915,1.181839 1.33,1.282139 2.17791,1.144546 1.23716,-0.200764 4.02854,-1.560137 5.19138,-2.52815 0.51421,-0.428058 1.27796,-1.408541 1.69721,-2.178846 l 0.76228,-1.400556 -0.338,-2.388092 c -0.48061,-3.3957068 -0.39114,-6.7762268 0.24518,-9.2642158 1.07102,-4.187645 2.70171,-6.7797436 6.67812,-10.6153711 4.75152,-4.5832761 8.73002,-11.9062011 8.34146,-15.3534931 -0.16271,-1.443614 -1.46709,-4.233521 -2.94748,-6.304341 -0.63527,-0.888629 -2.47817,-3.018983 -4.09534,-4.73412 -1.61717,-1.715138 -3.14451,-3.501075 -3.39408,-3.96875 -0.28038,-0.525386 -0.45801,-1.465593 -0.46486,-2.46044 -0.009,-1.338231 0.11238,-1.788303 0.72014,-2.665301 1.51172,-2.181403 4.40342,-2.920024 10.30968,-2.63338 13.99934,0.679424 23.89898,7.253531 30.32484,20.137969 4.60716,9.237822 4.30821,15.6092686 -1.35314,28.8395832 -2.38664,5.577488 -2.93632,7.3419068 -2.94245,9.4450078 -0.005,1.609767 0.11977,2.021779 1.35879,4.497917 0.75017,1.499203 3.03244,5.166606 5.07169,8.149783 10.90726,15.955901 12.9558,19.268034 13.88444,22.448881 0.22714,0.777979 0.49268,2.647448 0.5901,4.154379 0.1769,2.736258 0.1778,2.739046 0.67183,2.110994 1.87407,-2.382514 3.44937,-7.765065 5.22885,-17.866338 2.33304,-13.243462 4.09276,-17.870921 8.46373,-22.256622 3.35648,-3.367821 6.76497,-5.4337848 11.93218,-7.2323718 4.79356,-1.668531 13.51751,-3.083161 16.38017,-2.656123 3.37788,0.503894 5.31368,2.479236 5.31368,5.4222008 0,2.226331 -0.67953,3.199574 -4.2268,6.053841 -0.6114,0.491958 -1.4533,1.366136 -1.87092,1.942621 -1.01426,1.400141 -2.45322,5.180095 -3.4525,9.069163 -1.07982,4.202583 -1.29148,9.348318 -0.65302,15.874999 0.9637,9.850837 0.92716,10.219243 -1.397,14.086287 -1.92907,3.209671 -4.37956,5.993445 -9.55386,10.853242 -2.55352,2.398313 -5.14861,5.030859 -5.76681,5.850104 -1.42147,1.883659 -3.13129,5.310828 -3.53972,7.094987 -0.27139,1.185588 -0.25416,1.463596 0.12681,2.045015 0.24249,0.370091 0.78407,0.85036 1.20351,1.067266 0.73223,0.37865 0.82619,0.353287 2.35725,-0.636286 1.93225,-1.248868 5.17972,-4.292708 6.91026,-6.476939 0.69916,-0.882481 2.24139,-3.053908 3.42712,-4.825397 1.18576,-1.771488 2.51507,-3.523083 2.95402,-3.892436 1.48436,-1.24901 3.64707,-1.536515 5.41187,-0.719439 2.20183,1.019424 3.4231,3.152667 4.4084,7.70047 0.52277,2.412852 0.60119,3.526063 0.5964,8.466667 -0.005,4.867576 -0.0901,6.079897 -0.5919,8.400267 -2.19935,10.171047 -6.4824,16.998717 -14.86395,23.694827 -4.33205,3.4609 -10.50136,9.69248 -12.75532,12.88407 -2.37479,3.36269 -4.75332,7.58859 -6.37365,11.324 l -1.33112,3.06864 0.32213,1.46878 c 0.89535,4.08215 1.08265,5.08238 1.33911,7.15039 0.58293,4.7007 0.30625,9.84129 -0.92208,17.13339 -1.29336,7.67799 -2.97912,13.98817 -4.31654,16.15765 -1.03939,1.68603 -2.70351,2.69923 -4.43336,2.69923 -1.68799,0 -2.64017,-0.33375 -3.63352,-1.2736 -1.9816,-1.87489 -2.10151,-3.46512 -0.70395,-9.33447 2.33513,-9.80694 3.17497,-15.12975 3.17497,-20.1227 0,-8.67005 -2.38561,-14.65728 -9.95439,-24.98275 -8.07702,-11.01887 -11.2137,-16.47918 -13.57455,-23.63041 -1.74422,-5.28342 -2.18901,-7.894 -2.37194,-13.921687 -0.30787,-10.145164 0.18132,-17.622054 1.57395,-24.056768 0.28104,-1.298511 0.45808,-2.413815 0.39344,-2.478452 -0.15661,-0.156607 -4.13806,2.005922 -7.39349,4.015777 -5.02782,3.104102 -9.43766,8.106391 -11.10008,12.591361 -1.16877,3.153188 -1.54749,5.371062 -1.55975,9.134332 -0.0133,4.07295 0.48878,7.242527 1.94878,12.303117 1.34857,4.6744 1.82137,7.24651 1.82137,9.90878 0,5.57681 -2.39829,10.10163 -7.6664,14.46413 -3.74264,3.09928 -7.64763,4.42233 -11.59107,3.92716 -8.05302,-1.01118 -11.59755,-6.78082 -12.75343,-20.75944 -0.58941,-7.12797 -1.04646,-11.1254 -1.45209,-12.7 -0.46008,-1.786007 -2.18841,-5.438017 -3.10583,-6.562697 l -0.60514,-0.74186 -0.0142,5.63666 c -0.0138,5.450067 -0.0469,5.794287 -0.99972,10.399147 -1.18889,5.7455 -3.25681,13.84916 -6.92052,27.11979 -4.6624,16.88809 -4.78784,17.55076 -4.55766,24.07708 0.22217,6.29891 1.13881,10.09462 3.69161,15.28657 2.76026,5.61387 6.46484,10.55793 11.74701,15.67732 5.46445,5.29606 10.91914,9.55771 16.32796,12.75668 3.67722,2.17485 5.20735,3.47157 5.98011,5.06785 1.70604,3.52423 -0.90127,7.30324 -5.03884,7.30324 -1.48366,0 -2.76727,-0.55398 -6.5105,-2.80979 -15.72235,-9.47492 -27.78815,-22.254 -33.41699,-35.39249 -4.04029,-9.43057 -5.0194,-20.12556 -2.74523,-29.98663 1.11207,-4.82209 1.16772,-4.31504 -0.60212,-5.48572 -10.46388,-6.92128 -17.30971,-16.16442 -19.50685,-26.33786 -1.28039,-5.9286 -1.21816,-15.38858 0.14268,-21.689187 1.17705,-5.44968 4.4998,-14.402321 7.75263,-20.888275 0.80844,-1.611976 1.33384,-2.930869 1.16756,-2.930869 -0.16628,0 -1.41715,0.528098 -2.77972,1.173552 -13.42017,6.357194 -25.20704,21.929392 -29.55241,39.043109 -0.8185,3.22358 -0.83967,3.45464 -0.83601,9.12812 0.004,6.61369 0.002,6.60353 2.38158,11.80529 2.47496,5.41076 2.85999,6.92375 2.85365,11.21346 -0.004,2.94516 -0.12204,4.1379 -0.57439,5.82084 -0.71897,2.67491 -2.27412,5.93979 -4.06535,8.53479 -2.64369,3.83001 -9.6338,10.56318 -13.82841,13.32013 -3.18911,2.09606 -8.0464,3.03978 -11.67503,2.26828 -3.65736,-0.77759 -6.16454,-2.57075 -7.56229,-5.40864 l -0.87101,-1.76842 -0.0913,-4.83246 c -0.0518,-2.74021 0.0414,-5.83012 0.21532,-7.13679 0.29475,-2.21488 0.62903,-3.59024 3.36393,-13.84043 1.14396,-4.28747 1.23552,-4.86524 1.23694,-7.80521 0.001,-2.70971 -0.0987,-3.4766 -0.68227,-5.23296 -2.22896,-6.70816 -7.74881,-11.55377 -16.80118,-14.74885 -1.22789,-0.43339 -2.27542,-0.78798 -2.32784,-0.78798 -0.0524,0 0.43852,1.00351 1.09099,2.23004 2.8748,5.40406 3.63344,9.63967 3.05891,17.07835 -0.34953,4.52541 -1.11236,7.76316 -2.86895,12.17702 -1.15502,2.90227 -2.30578,5.37607 -9.53858,20.50521 -7.55892,15.81131 -9.43724,21.98262 -9.78435,32.14687 -0.49178,14.40061 3.99638,24.86316 13.81516,32.20517 4.53151,3.38841 13.83083,6.81503 21.48424,7.91651 3.07173,0.44207 25.74256,0.8717 25.74256,0.48782 0,-0.10885 -1.16086,-1.40523 -2.57969,-2.88089 -5.23113,-5.4406 -9.88514,-11.74041 -12.613,-17.07333 -4.89962,-9.57868 -5.41086,-18.65018 -1.49051,-26.44737 2.83925,-5.64698 7.99509,-10.5731 14.16966,-13.53831 3.70404,-1.77877 5.45531,-2.20062 9.12812,-2.19882 2.61901,0 3.2911,0.0957 4.82641,0.67754 4.96769,1.88281 9.0062,5.81221 10.55347,10.26835 0.87858,2.53032 0.88235,7.51793 0.008,10.31875 -1.69346,5.42346 -5.08132,9.32111 -10.69988,12.31003 -3.61609,1.92365 -5.64977,2.07492 -7.88897,0.58685 -1.13176,-0.75213 -2.09049,-2.61279 -2.09049,-4.0571 0,-2.34984 1.39707,-4.18219 4.66707,-6.12108 2.04834,-1.21454 4.0094,-2.97579 4.85177,-4.35745 0.41226,-0.67619 0.53357,-1.33641 0.53433,-2.90809 0.002,-3.04083 -0.65875,-4.29413 -2.77713,-5.27185 -2.20227,-1.01639 -5.19825,-0.43037 -8.20848,1.60568 -2.12263,1.43566 -5.98247,5.50492 -6.93533,7.3116 -0.98147,1.86092 -1.6477,4.41688 -1.65332,6.34291 -0.0148,5.07855 2.83863,11.70723 8.00272,18.59068 1.97943,2.63848 9.55175,10.56677 13.00025,13.61139 l 2.08917,1.84451 1.71364,-0.17557 c 4.04305,-0.41424 13.83829,-2.41512 22.87174,-4.67204 3.65177,-0.91237 6.85151,-1.56755 7.65553,-1.56755 2.88894,0 4.96656,1.84578 5.19633,4.61647 0.22432,2.70505 -0.88553,4.38656 -3.79343,5.74731 -4.19393,1.9626 -26.23079,6.58553 -36.9081,7.74269 -8.24609,0.89368 -22.70631,1.3403 -30.67968,0.94757 z m -52.5428,-59.07227 c 0.0657,-0.32742 0.25815,-1.54781 0.42778,-2.71198 1.05097,-7.21289 3.64294,-13.95958 12.09619,-31.48542 5.44612,-11.29125 8.74867,-19.03346 8.45047,-19.81057 -0.0634,-0.16523 -1.4478,-0.81632 -3.07642,-1.44682 -3.14109,-1.21605 -9.75761,-4.40597 -12.84581,-6.19315 -1.01981,-0.59018 -3.43524,-2.13104 -5.36763,-3.42411 l -3.51343,-2.35103 -1.51366,0.26043 c -4.94008,0.84997 -7.350765,0.53242 -11.56781,-1.52379 -4.341845,-2.11706 -7.486748,-4.56213 -14.022917,-10.90234 -4.468913,-4.33494 -6.160368,-5.6915 -7.623238,-6.1139 -1.853449,-0.53517 -8.345067,-0.3915 -11.378773,0.25185 -8.060708,1.70939 -13.27429,7.21125 -12.331196,13.01305 0.305139,1.87716 1.522307,4.34408 2.935488,5.94952 l 1.111304,1.26252 0.432054,-1.57838 c 0.891008,-3.25498 2.6541,-5.47346 5.446895,-6.85374 1.765188,-0.87238 2.16946,-0.96768 4.141184,-0.97599 4.310965,-0.0183 8.532844,2.12929 13.391139,6.81135 5.444845,5.24733 10.514571,13.42951 13.22668,21.34696 1.13412,3.31083 1.867111,6.70536 3.36542,15.58544 2.145178,12.71394 4.967877,18.97028 11.74641,26.03523 2.18019,2.2723 5.75906,5.43793 6.15711,5.44619 0.10637,0.003 0.24711,-0.2639 0.31276,-0.59132 z m 57.11566,-26.81803 c 2.07448,-1.03767 5.02476,-3.34161 7.72335,-6.03137 4.11759,-4.10408 6.13694,-7.82045 6.4112,-11.79904 0.17002,-2.46628 -0.18364,-3.58463 -3.02279,-9.55889 l -2.05858,-4.33173 -0.0808,-8.06196 c -0.0938,-9.36633 0.12452,-11.34977 1.82994,-16.62234 3.25466,-10.062217 7.63601,-18.471419 13.20766,-25.349715 2.31284,-2.855244 8.13444,-8.778923 10.70776,-10.895513 1.16416,-0.957543 2.22456,-1.83311 2.35643,-1.945706 0.13777,-0.117626 -0.0615,-0.876141 -0.46853,-1.783014 -1.46274,-3.259418 -1.84784,-5.3404 -1.84211,-9.954246 0.005,-3.682691 0.0925,-4.560673 0.67609,-6.749912 0.83238,-3.122653 1.93788,-5.593477 3.72176,-8.318236 1.33437,-2.038151 1.37554,-2.157449 1.32426,-3.836458 -0.11403,-3.733149 -1.9267,-8.925065 -4.43149,-12.692803 -1.19585,-1.798809 -4.26089,-5.311965 -4.6344,-5.311965 -0.11462,0 -0.26371,1.756172 -0.33131,3.902604 -0.1401,4.448868 -0.57594,6.105578 -2.75061,10.455756 -2.51526,5.031481 -5.43137,8.432829 -8.7056,10.154224 -3.4359,1.806392 -8.15124,2.910255 -10.51597,2.461794 -5.49036,-1.041225 -12.51174,-7.943019 -13.66015,-13.427506 -0.65667,-3.136077 -0.34664,-5.762452 1.6928,-14.340622 1.95965,-8.242525 2.34176,-10.9341728 2.17777,-15.3404858 -0.16634,-4.4693439 -0.84427,-6.9411924 -3.23063,-11.7793049 -1.88452,-3.8207043 -3.38072,-6.1778773 -5.99657,-9.4472593 -1.91982,-2.399457 -5.52029,-6.404439 -5.52029,-6.140496 0,0.09094 0.65651,2.266164 1.45891,4.833841 1.95922,6.269521 2.32695,8.3269 2.32413,13.0028725 -0.007,12.1259197 -4.0108,17.7693155 -30.14202,42.4887715 -13.09342,12.386027 -15.00793,14.749066 -19.08717,23.558825 -2.77798,5.999491 -2.9923,7.396091 -3.15429,20.554796 -0.18584,15.096191 0.21951,19.241491 2.30982,23.621428 1.19353,2.50086 2.30426,3.81159 3.23,3.81159 1.52845,0 3.90229,2.64693 3.90229,4.35121 0,0.84314 1.88965,2.3759 5.95313,4.82882 2.57862,1.5566 12.13628,6.42454 12.62211,6.42877 0.26288,0.003 -0.3711,-1.70712 -1.37838,-3.71652 -1.25217,-2.49799 -2.75272,-4.4922 -6.06153,-8.05582 -1.6214,-1.74625 -3.30339,-3.70374 -3.73776,-4.34997 -1.52788,-2.27306 -1.62195,-4.1937 -0.30772,-6.28277 1.57661,-2.506147 3.91271,-2.902947 10.61576,-1.803117 5.48878,0.90059 9.64177,1.914127 13.51522,3.298407 l 3.04271,1.08739 3.26767,-3.383297 c 5.45947,-5.65267 9.45943,-10.948291 11.80858,-15.633574 2.20348,-4.394769 2.49069,-6.946593 1.11813,-9.934594 -1.01551,-2.210734 -3.95296,-6.604185 -5.53141,-8.273161 -1.20903,-1.278371 -1.45973,-1.42427 -2.44731,-1.42427 -1.62602,0 -3.58247,1.101751 -5.39257,3.036752 -1.94153,2.075503 -2.97979,4.181213 -3.15834,6.405446 -0.2881,3.589219 0.7579,4.037732 5.62692,2.412757 4.03607,-1.346989 6.28161,-1.280467 8.08811,0.239607 3.11923,2.624653 2.10352,7.177198 -2.07619,9.305821 -1.44736,0.7371 -5.85346,2.064165 -8.11524,2.444213 -6.61201,1.111013 -12.46504,-2.94798 -14.06737,-9.755529 -0.58883,-2.501661 -0.37579,-7.448256 0.43016,-9.988026 1.70805,-5.382487 5.30065,-9.949785 9.99324,-12.704484 7.02567,-4.124282 13.60959,-3.319624 19.19169,2.345529 2.7557,2.796696 6.82788,9.197287 8.24236,12.95523 3.4795,9.244171 -0.96484,20.209523 -13.85374,34.1808 -1.61096,1.74625 -2.9311,3.2404 -2.93363,3.32033 -0.003,0.0799 0.84636,0.85384 1.88641,1.7198 5.86903,4.88656 9.91922,12.44539 10.49393,19.58472 0.41845,5.19832 -0.25199,9.69574 -2.75593,18.48699 -1.96761,6.90825 -2.6143,10.4416 -2.50877,13.70743 0.0203,0.62868 0.13264,0.72761 0.82606,0.72761 0.4414,0 1.42366,-0.3107 2.18281,-0.69043 z m 69.99191,-35.55749 c 4.57645,-16.85355 5.76033,-23.06231 5.54442,-29.077237 -0.13896,-3.87127 -0.63101,-5.62111 -2.46508,-8.766407 -1.47436,-2.528432 -2.82607,-4.10877 -4.05223,-4.737642 -2.5379,-1.301639 -3.55144,-4.002812 -2.511,-6.691998 0.78399,-2.026319 2.25594,-3.143067 4.58995,-3.482313 1.51661,-0.220435 3.36053,0.127 7.01146,1.321112 8.35681,2.733262 14.15313,6.887067 18.29762,13.11258 3.98763,5.989888 5.33134,10.908788 6.31259,23.108365 0.53412,6.64059 0.89595,8.71148 1.90542,10.90544 0.37803,0.82158 0.43459,0.84576 1.6224,0.69347 0.6769,-0.0868 1.59609,-0.3769 2.04264,-0.64474 1.32977,-0.79758 3.7101,-3.47467 4.07642,-4.58462 0.50803,-1.53932 0.1847,-4.53853 -0.90401,-8.38586 -1.9583,-6.92029 -2.61121,-11.381547 -2.48132,-16.954747 l 0.0845,-3.625233 -2.38125,-0.579832 c -5.90178,-1.437084 -12.74423,-4.422703 -16.31654,-7.119522 -3.99581,-3.016533 -6.97597,-7.047571 -8.47935,-11.46938 -1.87615,-5.518256 -1.10369,-13.093406 1.93309,-18.956845 2.359,-4.554762 6.71375,-8.285252 11.27939,-9.662456 3.81015,-1.149318 9.3447,-1.051523 12.86803,0.227375 3.60421,1.308261 7.41794,4.653965 9.02775,7.91987 2.46969,5.010365 1.57851,11.823899 -2.24637,17.174707 -1.72502,2.413212 -4.44552,5.293284 -5.81704,6.158254 -1.38833,0.875565 -3.25789,1.27032 -4.47022,0.943875 -2.60796,-0.702252 -4.12437,-2.763399 -3.91271,-5.318279 0.16401,-1.97975 0.77456,-3.072675 3.46272,-6.198555 2.75628,-3.205091 3.33271,-4.291446 3.33271,-6.280943 0,-1.192874 -0.12845,-1.636313 -0.65535,-2.262505 -1.60749,-1.910392 -6.19626,-2.767846 -8.80548,-1.645388 -3.015,1.297016 -5.47819,5.244113 -5.78046,9.262795 -0.18417,2.448472 0.20024,5.677786 0.81809,6.872581 0.63241,1.222936 3.04056,3.687265 4.71318,4.823118 3.04892,2.070479 9.78741,4.657048 13.3219,5.113608 l 1.28291,0.165716 0.66146,-1.273596 c 2.7743,-5.341728 9.47659,-11.661422 17.26089,-16.275557 6.27443,-3.719161 15.02031,-7.36337 17.67168,-7.36337 1.53098,0 3.36198,0.784389 4.32863,1.854359 l 0.95546,1.057581 v -1.710629 c 0,-3.170248 -0.82706,-4.705342 -8.98644,-16.679436 -11.19666,-16.4314 -12.12861,-18.414079 -11.84487,-25.199215 0.16346,-3.9090168 0.37372,-4.6963398 2.77398,-10.3872418 3.66644,-8.6929962 4.75443,-12.6643832 4.51038,-16.4636332 -0.0991,-1.543177 -0.33576,-2.370902 -1.19319,-4.173866 -2.60364,-5.474754 -7.49453,-11.148793 -11.03581,-12.802884 -2.70432,-1.263157 -2.66985,-1.31183 -1.23339,1.741591 1.58799,3.37552 1.87515,4.554201 1.86934,7.672726 -0.007,4.002745 -0.75741,6.81771 -3.05263,11.458359 -1.78321,3.605434 -3.95298,6.6427976 -7.98131,11.1727152 -4.18401,4.704972 -4.3106,4.959837 -4.29446,8.646501 0.007,1.6142228 0.10896,4.1255738 0.22642,5.5807818 0.27738,3.436398 -0.17681,5.136071 -2.13681,7.996439 -3.69139,5.38708 -9.67352,9.184489 -15.35221,9.74545 -7.41236,0.732224 -15.29721,-6.417924 -15.77146,-14.301903 -0.07,-1.163945 0.0916,-4.596398 0.35908,-7.627673 l 0.48638,-5.5114108 -0.8637,-1.500449 c -1.75392,-3.046981 -4.78479,-9.518425 -5.70302,-12.1769821 -1.53062,-4.4315901 -2.06157,-7.5437461 -1.95895,-11.4824321 0.0483,-1.855449 0.0353,-3.373496 -0.029,-3.373438 -0.0643,6.1e-5 -0.90202,0.46654 -1.86161,1.036624 -2.97899,1.769783 -5.0389,4.444072 -6.0289,7.827027 -0.61252,2.093066 -0.71601,11.227704 -0.22063,19.4739352 0.5853,9.7428578 0.55611,14.0721178 -0.11842,17.5674698 -0.56594,2.932626 -1.73421,6.558063 -2.77817,8.621326 -1.17957,2.331308 -3.81551,5.957388 -6.71567,9.238308 -1.60791,1.819011 -2.92483,3.415115 -2.92648,3.546901 -0.006,0.472361 -1.36805,2.017543 -2.1224,2.407632 -0.56146,0.290345 -1.10988,1.084167 -2.03127,2.940211 -1.22005,2.457664 -1.26553,2.633718 -1.36339,5.277241 -0.0702,1.897161 0.0312,3.326347 0.33122,4.666285 0.62043,2.771124 0.54928,2.719908 2.66968,1.92179 4.00475,-1.507382 11.12924,-2.768394 15.64092,-2.768394 3.79326,0 5.96003,1.775659 5.96003,4.884211 0,1.599227 -0.46002,2.63398 -2.82775,6.360581 -3.313,5.214379 -4.51655,7.314588 -6.48568,11.317628 -4.77543,9.707936 -6.92332,17.968216 -6.89534,26.517783 0.0148,4.51714 0.50432,7.3819 1.86025,10.88599 1.12633,2.91076 3.99495,7.17322 6.67801,9.92285 2.44309,2.50367 5.27749,4.81709 5.53665,4.51895 0.092,-0.1058 0.89466,-2.87128 1.78375,-6.1455 z m 97.74317,2.14683 c 3.99502,-7.33616 9.74434,-14.06001 17.00143,-19.88334 3.92631,-3.15058 6.09484,-5.26696 8.04011,-7.84669 1.55398,-2.060847 3.77962,-6.405337 4.37909,-8.548047 0.488,-1.74423 0.9226,-4.762496 0.6858,-4.762496 -0.0929,0 -0.5792,0.427275 -1.08069,0.949502 -1.28466,1.337754 -4.82415,3.973054 -6.42763,4.785584 -4.57308,2.31736 -8.49408,2.48694 -12.60814,0.54528 -4.82877,-2.27897 -7.95988,-8.254822 -7.18738,-13.717386 0.36481,-2.579542 1.08689,-4.756353 2.56366,-7.728381 2.29293,-4.614534 5.89044,-9.273894 8.55824,-11.08429 2.60511,-1.767866 8.28656,-7.792957 9.42573,-9.995878 0.33827,-0.654116 0.31906,-1.481945 -0.16357,-7.052456 -0.95025,-10.967846 -0.55377,-15.70333 1.96273,-23.443119 0.65887,-2.026444 0.82638,-2.844271 0.58251,-2.844271 -0.18825,0 -1.41372,0.53636 -2.72325,1.191913 -3.88879,1.946738 -6.02438,4.260485 -7.38032,7.996063 -0.34776,0.958054 -1.40178,5.979956 -2.3423,11.159783 -1.72514,9.501087 -2.47745,12.693952 -3.74139,15.87836 -3.33044,8.390919 -10.91369,15.611165 -15.71657,14.96424 l -1.21296,-0.16338 -1.47357,2.466197 c -2.45327,4.105823 -5.46298,8.162502 -7.81682,10.535989 l -2.23036,2.248958 0.12851,6.482288 c 0.14063,7.09402 0.46659,9.559847 1.80136,13.626037 1.1379,3.46645 3.82741,8.72398 6.64409,12.98797 2.83649,4.29403 9.01332,13.05685 9.20916,13.06468 0.0728,0.003 0.57791,-0.81299 1.12253,-1.81311 z M 93.79714,74.844825 c 0.480555,-8.413938 2.150192,-15.048592 5.61027,-22.293582 3.96114,-8.294156 8.20881,-13.373782 21.1513,-25.293997 7.11234,-6.550572 15.25233,-14.455939 16.86478,-16.378671 l 1.06407,-1.2688348 -1.18291,-1.133428 c -1.51464,-1.451282 -3.58223,-2.276311 -9.3895,-3.746685 -2.51227,-0.636095 -5.40058,-1.506453 -6.41848,-1.934125 l -1.85071,-0.777589 -0.15406,0.96371 c -0.40763,2.549962 -1.18794,5.87334 -1.6952,7.2199968 -1.94567,5.16532 -7.74195,10.373024 -13.3647,12.007601 -2.26167,0.657484 -5.341955,0.449998 -7.421207,-0.499888 C 94.115331,20.38657 92.310465,18.22875 88.643377,11.705612 87.307453,9.3292282 85.923913,6.9456792 85.568839,6.4088372 84.911781,5.4154112 82.076998,3.3011822 79.97355,2.2357712 c -1.009549,-0.511345 -1.13932,-0.528945 -0.987753,-0.13397 0.85957,2.240005 1.580981,12.0710608 1.216327,16.5755768 -0.235207,2.905477 -0.591937,4.677608 -2.473436,12.287323 -1.594303,6.44815 -1.752637,7.82945 -1.750008,15.266961 0.0041,11.635399 0.771888,16.540951 3.169399,20.250364 1.336683,2.06811 4.336584,5.208683 6.716866,7.031828 1.573943,1.205545 7.045933,4.356947 7.599796,4.376838 0.08696,0.0031 0.236543,-1.367517 0.332399,-3.045867 z m 88.9914,-40.644476 c 2.09625,-0.981794 2.89439,-1.955239 4.91752,-5.997641 l 1.6312,-3.259288 -0.005,-5.075087 c -0.003,-3.135833 -0.12583,-5.485394 -0.32072,-6.148874 -0.17348,-0.590582 -0.84491,-1.755674 -1.49207,-2.589096 -1.46053,-1.8808688 -1.83155,-2.9712858 -1.6877,-4.9600498 0.25731,-3.557225 3.46958,-5.323637 7.64494,-4.203909 2.06261,0.55314 6.61937,2.865913 9.73628,4.94163 6.65096,4.4292278 11.90224,10.9073128 14.86379,18.3362538 0.60912,1.527969 1.14082,2.816818 1.18155,2.864109 0.17483,0.203015 2.00256,-3.928189 2.37918,-5.37765 0.61208,-2.355692 0.77454,-8.32118 0.41584,-15.2699818 -0.41054,-7.953116 -0.28294,-7.424685 -1.67424,-6.933808 -3.45798,1.220046 -9.51367,1.539708 -11.94381,0.630475 -1.67122,-0.625282 -3.36619,-2.2961731 -4.12499,-4.066389 -0.64293,-1.4999017 -1.21336,-5.2094949 -1.73295,-11.2696692 -0.23082,-2.692136 -0.57363,-5.566373 -0.76179,-6.387194 -0.40651,-1.773295 -1.60466,-3.931557 -2.18258,-3.931557 -0.48183,0 -1.88426,-0.948367 -2.53464,-1.714 -0.24994,-0.294227 -0.58566,-0.951677 -0.74604,-1.461 -0.18642,-0.591979 -0.97564,-1.563656 -2.18779,-2.693548 -1.0429,-0.972127 -1.91103,-1.746033 -1.92917,-1.719792 -0.0182,0.02625 0.12256,1.059746 0.31268,2.296673 0.5393,3.50856 0.46642,5.502646 -0.28844,7.89223 -1.0733,3.397568 -3.33059,6.475993 -7.38273,10.068346 -1.27616,1.131348 -2.57484,3.853021 -3.48669,7.3071325 -0.38417,1.4552083 -0.9195,3.0805199 -1.18963,3.6118032 -0.40872,0.8038625 -0.50954,1.7585105 -0.60073,5.6885415 -0.12405,5.3457068 -0.43904,7.3214568 -2.66425,16.7111828 -1.70174,7.180837 -1.87843,8.290367 -1.44943,9.101833 0.17603,0.332963 1.21305,1.525781 2.30448,2.650705 2.24637,2.315294 2.14211,2.295318 4.99825,0.957619 z m 33.4484,-43.9930893 c 1.69678,-0.5149927 3.09569,-1.2697767 4.30895,-2.3248987 0.93479,-0.812948 1.07609,-1.110898 1.48596,-3.133328 0.85715,-4.229391 2.69294,-7.952106 5.59382,-11.343474 l 1.68061,-1.964772 -0.57878,-2.875634 c -1.655,-8.222702 -2.61464,-17.757542 -2.37746,-23.621904 0.26548,-6.563665 0.75775,-9.330643 1.94216,-10.916505 1.31161,-1.756187 3.03396,-2.18273 12.51963,-3.100504 7.54657,-0.73016 13.72952,-1.472808 16.77332,-2.014685 6.88024,-1.224862 12.09643,-3.105663 15.07052,-5.433978 2.43355,-1.90514 8.99809,-10.989715 10.35597,-14.331471 1.05803,-2.603833 1.35699,-4.936643 0.97299,-7.592488 -0.55011,-3.804728 -2.96018,-9.741688 -4.94859,-12.190338 -1.66501,-2.05038 -5.55884,-3.53925 -9.28382,-3.54982 -5.28528,-0.015 -12.05814,2.50454 -14.64134,5.44664 -0.91707,1.04449 -0.94061,1.14177 -0.44143,1.82443 0.35159,0.48082 0.42588,0.4699 2.19994,-0.32335 6.46198,-2.88938 12.30558,-1.04736 15.16072,4.77895 1.43267,2.92356 1.95626,5.077644 1.97303,8.117138 0.0129,2.343388 -0.0486,2.64518 -0.8863,4.347665 -1.15488,2.347079 -4.40218,5.764435 -7.32659,7.710268 -1.18858,0.790858 -3.57427,2.111668 -5.30151,2.935136 l -3.14045,1.497216 -4.7625,0.23752 c -6.12301,0.305374 -65.53592,0.05519 -71.36793,-0.300525 -4.94853,-0.301828 -6.29074,-0.572651 -7.54649,-1.522682 -1.40119,-1.060061 -1.93462,-2.410611 -1.89236,-4.79107 0.0603,-3.39403 -0.87305,-10.52682 -1.45335,-11.107115 -0.0502,-0.05024 -0.29484,0.419611 -0.54356,1.044112 -0.86004,2.159423 -3.24955,5.353936 -6.0035,8.026011 -6.26338,6.077167 -10.39852,7.051788 -16.4656,3.880826 -3.46074,-1.80876 -5.29128,-4.251717 -6.12132,-8.169259 -0.48676,-2.297337 -0.48616,-3.598074 0.003,-6.614364 0.52638,-3.245467 1.66774,-6.553747 3.86594,-11.205587 l 1.82409,-3.86013 v -2.65568 c 0,-2.51925 -0.71662,-6.47319 -1.27427,-7.03085 -0.11477,-0.11476 -0.48366,0.65483 -0.81976,1.7102 -0.89826,2.8206 -2.97894,7.04598 -6.48213,13.16367 -4.02318,7.02576 -7.50343,14.027692 -8.56139,17.224711 -1.77143,5.353052 -1.74483,9.928516 0.0794,13.650586 1.13635,2.31861 3.03431,4.111713 5.92694,5.599504 3.92712,2.019867 3.72265,1.994419 14.37378,1.788981 5.21064,-0.100502 14.44105,-0.357225 20.51203,-0.570495 6.07097,-0.21327 16.04643,-0.465979 22.16768,-0.56157 l 11.12954,-0.173808 1.43817,0.667034 c 4.9567,2.298964 6.64204,8.508663 5.39,19.859698 -0.35493,3.217868 -0.7859,5.821746 -2.5779,15.57555 -0.27019,1.470683 -0.26139,1.507445 0.66561,2.778125 1.49704,2.052087 2.8592,5.0196 3.54491,7.722763 0.54944,2.165948 0.91338,5.019129 1.58383,12.416519 0.16883,1.8628483 0.22356,1.893831 2.25578,1.2770317 z M 314.2337,201.87524 c -22.71682,-6.92031 -35.16058,-17.19887 -37.57353,-31.03575 -1.7044,-9.77374 2.46471,-22.60449 8.92217,-27.45865 2.17717,-1.63663 4.07872,-2.30409 6.98345,-2.45131 3.63803,-0.18439 6.27307,0.71983 9.43898,3.23898 2.71999,2.16434 5.40356,6.51317 6.37116,10.32473 1.27284,5.01396 1.71046,13.0565 0.88157,16.20168 -1.19846,4.54755 -3.57148,6.7891 -7.20681,6.80759 -1.61124,0.008 -2.10817,-0.11422 -3.66137,-0.90185 -2.35377,-1.19362 -5.34729,-3.96603 -6.15486,-5.70024 -1.04871,-2.252 -0.61899,-4.63648 1.12994,-6.27004 1.01436,-0.94745 1.95897,-1.2736 3.68861,-1.2736 1.41172,0 1.43799,-0.014 1.43799,-0.77047 0,-1.15337 -0.72082,-4.69627 -1.32464,-6.51073 -0.59311,-1.78229 -1.76621,-3.37278 -2.93251,-3.9759 -0.68848,-0.35602 -0.85447,-0.35443 -1.56891,0.0151 -1.46657,0.7584 -2.98305,3.23326 -4.06144,6.6282 -1.04527,3.29068 -1.30538,5.13504 -1.16349,8.25006 0.21581,4.73831 1.92576,8.15038 6.07921,12.13056 5.00913,4.80015 13.01167,8.80634 24.77795,12.40422 2.92698,0.89501 4.64003,2.60213 4.96099,4.94382 0.28708,2.09439 -0.93823,4.41584 -2.85347,5.40626 -1.38364,0.71551 -3.81712,0.71448 -6.17099,-0.003 z m 39.85731,-244.656161 c -1.32887,-0.674743 -2.55873,-2.231533 -2.97026,-3.759779 -0.91406,-3.39456 2.3646,-7.125272 5.89449,-6.707209 1.57694,0.186767 3.02379,1.05591 4.09445,2.459627 0.67001,0.878422 0.74901,1.193491 0.74901,2.986977 0,1.738392 -0.0934,2.140193 -0.70276,3.022007 -1.64531,2.381131 -4.64185,3.228724 -7.06493,1.998377 z m 4.7806,-1.3428 c 1.3612,-0.954892 1.92386,-2.05146 1.9014,-3.705617 -0.0164,-1.199792 -0.16221,-1.69631 -0.70924,-2.413518 -2.3857,-3.127804 -7.35669,-1.841 -7.79153,2.016937 -0.16388,1.454007 0.63516,3.328479 1.72257,4.040981 1.49537,0.979813 3.53092,1.005367 4.8768,0.06122 z m -2.83374,-3.392406 c -0.2159,-0.349347 0.0733,-0.79375 0.51647,-0.79375 0.387,0 0.73202,0.647679 0.47953,0.900174 -0.24673,0.246726 -0.81529,0.185973 -0.996,-0.106424 z"
       style="fill:#000000;stroke-width:0.26458332" />
  </g>
</svg>
